<?xml version="1.0" encoding="utf-8"?>
<!-- Generator: Adobe Illustrator 24.1.2, SVG Export Plug-In . SVG Version: 6.00 Build 0)  -->
<svg version="1.1"
	 id="Layer_1" xmlns:inkscape="http://www.inkscape.org/namespaces/inkscape" xmlns:sodipodi="http://sodipodi.sourceforge.net/DTD/sodipodi-0.dtd" xmlns:svg="http://www.w3.org/2000/svg"
	 xmlns="http://www.w3.org/2000/svg" xmlns:xlink="http://www.w3.org/1999/xlink" x="0px" y="0px" viewBox="0 0 108.4 113.1"
	 style="enable-background:new 0 0 108.4 113.1;" xml:space="preserve">
<style type="text/css">
	.st0{opacity:0.2;enable-background:new    ;}
	.st1{fill:#E0A906;}
	.st2{fill:#FFFFFF;}
</style>
<g id="g14">
	<g id="g12">
		<path id="path4" class="st0" d="M50.2,98.2c1.2-0.1,2.4-0.2,3.6-0.3L67,113.1l3.2-18.9c37.9-14.3,47.9-62.3,28.8-80.1
			C76.9-6.7,32.8-0.3,13.7,31C0.2,53.2-3.9,100.6,50.2,98.2z"/>
		<path id="path4_1_" class="st1" d="M45.2,96.2c1.2-0.1,2.4-0.2,3.6-0.3L62,111.1l3.2-18.9c37.9-14.3,47.9-62.3,28.8-80.1
			C71.9-8.7,27.8-2.3,8.7,29C-4.8,51.2-8.9,98.6,45.2,96.2z"/>
		<g id="g10_1_">
			<path id="path6_1_" class="st2" d="M42.4,14.2l15.2-2.8l-1.8,50.9H45.4L42.4,14.2z"/>
			<circle id="circle8_1_" class="st2" cx="50.8" cy="73.4" r="6.9"/>
		</g>
	</g>
</g>
</svg>
