<?xml version="1.0" encoding="utf-8"?>
<!-- Generator: Adobe Illustrator 22.1.0, SVG Export Plug-In . SVG Version: 6.00 Build 0)  -->
<svg version="1.1" id="space_game" xmlns="http://www.w3.org/2000/svg" xmlns:xlink="http://www.w3.org/1999/xlink" x="0px" y="0px"
	 viewBox="0 0 1920 1080" style="enable-background:new 0 0 1920 1080;" xml:space="preserve">
<style type="text/css">
	.st0{fill-rule:evenodd;clip-rule:evenodd;fill:url(#SVGID_1_);}
	.st1{opacity:0.2;fill-rule:evenodd;clip-rule:evenodd;fill:url(#SVGID_2_);}
	.st2{opacity:0.2;fill-rule:evenodd;clip-rule:evenodd;fill:url(#SVGID_3_);}
	.st3{fill-rule:evenodd;clip-rule:evenodd;fill:none;}
</style>
<g>
	<g>
		
			<radialGradient id="SVGID_1_" cx="972.1475" cy="1045.5887" r="728.358" gradientTransform="matrix(1.6671 0 0 0.9876 -640.2998 6.7154)" gradientUnits="userSpaceOnUse">
			<stop  offset="0" style="stop-color:#890048"/>
			<stop  offset="0.5056" style="stop-color:#540048"/>
			<stop  offset="1" style="stop-color:#000027"/>
		</radialGradient>
		<rect x="0" y="0" class="st0" width="1920" height="1080"/>
		<linearGradient id="SVGID_2_" gradientUnits="userSpaceOnUse" x1="-1.178145e-03" y1="713.8268" x2="1920" y2="713.8268">
			<stop  offset="0" style="stop-color:#52297A"/>
			<stop  offset="1" style="stop-color:#000000"/>
		</linearGradient>
		<path class="st1" d="M1900.3,822.1c-131.8-93.2-276.5-337.7-539.5-441.3c-214.9-84.7-601.6,4.2-582.3,140.9
			c14.9,105.7,228.5,11.7,254.9,43.5c24.1,29-91.1,94.3-234.2,85C661.5,641.2,259.9,456.3,0,489.8l0,563.1
			c87.4-67.5,362.5-235.2,903.9-202.8c674.5,40.4,499.5,229.9,499.5,229.9H1920l0-245.3C1913.1,830.7,1906.5,826.5,1900.3,822.1z
			 M130.7,558.3c-0.7,8.3-38,14.1-47.3,7.9c-9.3-6.2,2.5-18.6,15.5-19.7C115.5,545.1,131.4,550,130.7,558.3z M0,500.5
			c50.6-8.2,109.3-7.5,109.3,6.7c0,13.5-22.8,32.1-64.2,42.5c-11.9,3-28.3,4.5-45,4.5L0,500.5z M202.5,912.6
			c-28.9,18.1-120.8,50-202.5,69.9l0-81.9c16.8-5.3,33.9-9.7,50.6-12.5C139,873.2,259.1,877.2,202.5,912.6z M316.2,643.9
			C210,618,124.9,543.2,139.7,526.8c33.1-36.9,306.6,23.9,366.1,77.8C565.1,658.4,435,672.9,316.2,643.9z M996.8,401.5
			c80.1-84.3,457.3,15.2,421.3,51.1C1382.2,488.5,964.9,435,996.8,401.5z M1315.2,880.1c13.5-39.2,169.9-33.1,179.2-11.1
			c8.2,19.4-0.3,47.7-48.7,54.6C1397.4,930.6,1310.2,894.7,1315.2,880.1z M1810.7,1041.8c-115.8,20.7-389.8-38-352.5-82.9
			c70.5-84.9,296.3-114,371.4-68.4C1904.8,936.1,1926.5,1021,1810.7,1041.8z"/>
		
			<linearGradient id="SVGID_3_" gradientUnits="userSpaceOnUse" x1="-5.709097e-03" y1="505.5835" x2="1920.0007" y2="505.5835" gradientTransform="matrix(1 0 0 -1 1.000000e-04 733.4735)">
			<stop  offset="0" style="stop-color:#52297A"/>
			<stop  offset="1" style="stop-color:#000000"/>
		</linearGradient>
		<path class="st2" d="M0,0l0,240.8c76.2,71,165.2,138.7,274.9,181.9c214.9,84.7,601.6-4.2,582.3-140.9
			c-14.9-105.7-228.5-11.7-254.9-43.5c-24.1-29,91.1-94.3,234.2-85c143.1,9.3,570.8,208.4,828.8,155.4
			c109.2-22.4,193.7-73.8,254.7-125.5L1920,0H0z M1505,245.1c0.7-8.3,38-14.1,47.3-7.9c9.3,6.2-2.5,18.6-15.5,19.7
			C1520.2,258.3,1504.3,253.4,1505,245.1z M1704.6,278.7c-23.8,28-178.2,40.6-178.2,17.6c0-13.5,22.8-32.1,64.2-42.5
			C1632.1,243.4,1728.4,250.7,1704.6,278.7z M1319.5,159.5c106.2,25.9,191.3,100.7,176.6,117.1c-33.1,36.9-306.6-23.9-366.1-77.8
			C1070.6,145,1200.7,130.5,1319.5,159.5z M638.9,402c-86.6,126.2-457.3-15.2-421.3-51.1C253.5,314.9,656.5,376.2,638.9,402z"/>
		<rect class="st3" width="1920" height="1080"/>
	</g>
</g>
</svg>
