<?xml version="1.0" encoding="UTF-8" standalone="no"?>
<!-- Generator: Adobe Illustrator 24.1.2, SVG Export Plug-In . SVG Version: 6.00 Build 0)  -->

<svg
   version="1.1"
   id="svg4"
   inkscape:version="1.2.1 (9c6d41e410, 2022-07-14)"
   sodipodi:docname="reload.svg"
   x="0px"
   y="0px"
   viewBox="0 0 20 21.1"
   style="enable-background:new 0 0 20 21.1;"
   xml:space="preserve"
   xmlns:inkscape="http://www.inkscape.org/namespaces/inkscape"
   xmlns:sodipodi="http://sodipodi.sourceforge.net/DTD/sodipodi-0.dtd"
   xmlns="http://www.w3.org/2000/svg"
   xmlns:svg="http://www.w3.org/2000/svg"><defs
   id="defs17" /><sodipodi:namedview
   id="namedview15"
   pagecolor="#ffffff"
   bordercolor="#000000"
   borderopacity="0.25"
   inkscape:showpageshadow="2"
   inkscape:pageopacity="0.0"
   inkscape:pagecheckerboard="0"
   inkscape:deskcolor="#d1d1d1"
   showgrid="false"
   inkscape:zoom="39.668246"
   inkscape:cx="7.2980288"
   inkscape:cy="10.587814"
   inkscape:window-width="1920"
   inkscape:window-height="1017"
   inkscape:window-x="1912"
   inkscape:window-y="-8"
   inkscape:window-maximized="1"
   inkscape:current-layer="svg4" />
<style
   type="text/css"
   id="style2">
	.st0{opacity:0.15;}
	.st1{fill:#515CB0;}
</style>
<g
   id="g12">
	<g
   class="st0"
   id="g6">
		<path
   d="M16.7,7.1c-1.5-1.5-3.5-2.3-5.7-2.3v-3l-4,4l4,4v-3c3.3,0,6,2.7,6,6c0,3.3-2.7,6-6,6s-6-2.7-6-6c0-1.6,0.6-3.1,1.8-4.2    L5.3,7c-3.1,3.1-3.1,8.2,0,11.3c3.1,3.1,8.2,3.1,11.3,0C19.8,15.2,19.8,10.2,16.7,7.1z"
   id="path4" />
	</g>
	<g
   id="g10">
		<path
   class="st1"
   d="M16.2,5.9c-1.5-1.5-3.5-2.3-5.7-2.3v-3l-4,4l4,4v-3c3.3,0,6,2.7,6,6c0,3.3-2.7,6-6,6s-6-2.7-6-6    c0-1.6,0.6-3.1,1.8-4.2L4.8,5.8C1.7,9,1.7,14,4.8,17.2c3.1,3.1,8.2,3.1,11.3,0C19.3,14,19.3,9,16.2,5.9z"
   id="path8"
   style="fill:#ffffff;fill-opacity:1" />
	</g>
</g>
</svg>
