<?xml version="1.0" encoding="utf-8"?>
<!-- Generator: Adobe Illustrator 24.1.2, SVG Export Plug-In . SVG Version: 6.00 Build 0)  -->
<svg version="1.1" id="Layer_1" xmlns="http://www.w3.org/2000/svg" xmlns:xlink="http://www.w3.org/1999/xlink" x="0px" y="0px"
	 viewBox="0 0 100 100" style="enable-background:new 0 0 100 100;" xml:space="preserve">
<style type="text/css">
	.st0{fill:#FFFFFF;}
</style>
<g>
	<path class="st0" d="M95.8,79.2c0,0-9.6-10.7-20.9-23c-3-3.3-3.1-8.4-0.1-11.7C86.5,31.5,95.8,21,95.8,21l0.2-0.2
		c3.9-4.2,4.3-10.6,0.7-15.3c-4-5.1-11.4-6-16.5-2c0,0-10.7,9.5-23.6,20.9c-3.4,3-8.6,2.9-11.9-0.3C31.5,11.3,12.9-3.7,4.4,4.8
		C-7.3,16.5,7.4,29.3,22.8,40c4.7,3.2,8.9,10.7,4.7,14.5c-5.7,5.1-11.6,11.5-12,11.9C4.5,77.3-2.5,88,4.4,95.4
		c8.5,9.1,23.5-1.3,30.7-8.9c3-3.1,7-7.5,12.1-13.2c3.5-3.9,10.6-2.9,14.1,1.1c9.2,10.8,19,22.3,19,22.3c5.1,4,12.5,3.1,16.5-2
		c3.6-4.6,3.2-11.1-0.7-15.3L95.8,79.2z"/>
</g>
</svg>
