<?xml version="1.0" encoding="utf-8"?>
<!-- Generator: Adobe Illustrator 24.1.2, SVG Export Plug-In . SVG Version: 6.00 Build 0)  -->
<svg version="1.1" id="Layer_1" xmlns="http://www.w3.org/2000/svg" xmlns:xlink="http://www.w3.org/1999/xlink" x="0px" y="0px"
	 viewBox="0 0 184 370" style="enable-background:new 0 0 184 370;" xml:space="preserve">
<style type="text/css">
	.st0{fill:url(#SVGID_1_);}
	.st1{fill:url(#SVGID_2_);}
	.st2{fill:#FFFFFF;}
</style>
<g>
	
		<linearGradient id="SVGID_1_" gradientUnits="userSpaceOnUse" x1="6.7995" y1="140.45" x2="178.0005" y2="140.45" gradientTransform="matrix(1 0 0 -1 0 369)">
		<stop  offset="3.413260e-02" style="stop-color:#C852FF"/>
		<stop  offset="0.5014" style="stop-color:#C03BFF"/>
		<stop  offset="0.9479" style="stop-color:#B425F7"/>
	</linearGradient>
	<path class="st0" d="M155.2,204.6l-2.7-4.7c-7.2-10-12.9-20.9-17-32.4c-8.1-22.5-6.8-47.3,2.6-69.3l2.4-5.6h-48H44.4l2.4,5.6
		c9.4,22,10.7,46.8,2.6,69.3c-4.1,11.5-9.8,22.4-17,32.4l-2.7,4.7c-15,26.7-22.9,56.8-22.9,87.5v23c0,12.7,8.4,25.3,25.1,35
		s38.6,14.5,60.5,14.5s43.8-4.8,60.5-14.5s25.1-22.3,25.1-35v-23C178.1,261.3,170.2,231.3,155.2,204.6z"/>
	
		<linearGradient id="SVGID_2_" gradientUnits="userSpaceOnUse" x1="41.4123" y1="342.481" x2="162.8652" y2="257.4641" gradientTransform="matrix(1 0 0 -1 0 369)">
		<stop  offset="4.042573e-02" style="stop-color:#C750FF"/>
		<stop  offset="0.4137" style="stop-color:#C13EFF"/>
		<stop  offset="0.791" style="stop-color:#B425F7"/>
	</linearGradient>
	<circle class="st1" cx="92.6" cy="62.3" r="56.9"/>
	<path class="st2" d="M72,22.6c0,3.4-3.1,6.2-6.8,6.2c-3.8,0-6.8-2.8-6.8-6.2s3.1-6.2,6.8-6.2C68.9,16.4,72,19.2,72,22.6z"/>
	<path class="st2" d="M63.2,33.7c0,1.2-1.1,2.2-2.4,2.2c-1.3,0-2.4-1-2.4-2.2c0-1.2,1.1-2.2,2.4-2.2C62.1,31.5,63.2,32.5,63.2,33.7z
		"/>
</g>
</svg>
