<?xml version="1.0" encoding="utf-8"?>
<!-- Generator: Adobe Illustrator 24.1.2, SVG Export Plug-In . SVG Version: 6.00 Build 0)  -->
<svg version="1.1" id="Layer_1" xmlns="http://www.w3.org/2000/svg" xmlns:xlink="http://www.w3.org/1999/xlink" x="0px" y="0px"
	 viewBox="0 0 294 387" style="enable-background:new 0 0 294 387;" xml:space="preserve">
<style type="text/css">
	.st0{opacity:0.14;enable-background:new    ;}
	.st1{fill:url(#SVGID_1_);}
	.st2{fill:url(#SVGID_2_);}
	.st3{fill:#FFFFFF;}
</style>
<g>
	<path class="st0" d="M246.4,280.9c53.7,23.1,53.7,60.6,0,83.7c-53.7,23.1-140.7,23.1-194.3,0s-53.7-60.6,0-83.7
		C105.8,257.8,192.8,257.8,246.4,280.9z"/>
</g>
<g>
	
		<linearGradient id="SVGID_1_" gradientUnits="userSpaceOnUse" x1="6.7995" y1="158.5" x2="178.0005" y2="158.5" gradientTransform="matrix(1 0 0 -1 0 387)">
		<stop  offset="0" style="stop-color:#F23047"/>
		<stop  offset="0.5142" style="stop-color:#D63046"/>
		<stop  offset="1" style="stop-color:#B8333C"/>
	</linearGradient>
	<path class="st1" d="M155.2,204.5l-2.7-4.7c-7.2-10-12.9-20.9-17-32.4c-8.1-22.5-6.8-47.3,2.6-69.3l2.4-5.6h-48H44.4l2.4,5.6
		c9.4,22,10.7,46.8,2.6,69.3c-4.1,11.5-9.8,22.4-17,32.4l-2.7,4.7c-15,26.7-22.9,56.8-22.9,87.5v23c0,12.7,8.4,25.3,25.1,35
		s38.6,14.5,60.5,14.5s43.8-4.8,60.5-14.5s25.1-22.3,25.1-35v-23C178.1,261.3,170.2,231.2,155.2,204.5z"/>
	
		<linearGradient id="SVGID_2_" gradientUnits="userSpaceOnUse" x1="41.4123" y1="360.531" x2="162.8652" y2="275.5141" gradientTransform="matrix(1 0 0 -1 0 387)">
		<stop  offset="0" style="stop-color:#F23047"/>
		<stop  offset="0.5142" style="stop-color:#D63046"/>
		<stop  offset="1" style="stop-color:#B8333C"/>
	</linearGradient>
	<circle class="st2" cx="92.6" cy="62.3" r="56.9"/>
	<path class="st3" d="M72,22.5c0,3.4-3.1,6.2-6.8,6.2c-3.8,0-6.8-2.8-6.8-6.2s3.1-6.2,6.8-6.2C68.9,16.3,72,19.1,72,22.5z"/>
	<path class="st3" d="M63.2,33.6c0,1.2-1.1,2.2-2.4,2.2c-1.3,0-2.4-1-2.4-2.2s1.1-2.2,2.4-2.2C62.1,31.4,63.2,32.4,63.2,33.6z"/>
</g>
</svg>
