<?xml version="1.0" encoding="utf-8"?>
<!-- Generator: Adobe Illustrator 24.1.2, SVG Export Plug-In . SVG Version: 6.00 Build 0)  -->
<svg version="1.1" id="Layer_1" xmlns="http://www.w3.org/2000/svg" xmlns:xlink="http://www.w3.org/1999/xlink" x="0px" y="0px"
	 viewBox="0 0 104.1 111.2" style="enable-background:new 0 0 104.1 111.2;" xml:space="preserve">
<style type="text/css">
	.st0{fill:#404B96;}
	.st1{fill:#FFFFFF;}
</style>
<g>
	<g>
		<path class="st0" d="M45.4,96.3c1.2-0.1,2.4-0.2,3.6-0.3l13.2,15.2l3.2-18.9C103.3,78,113.3,30,94.2,12.2
			C72.1-8.6,28-2.2,8.9,29.1C-4.6,51.3-8.7,98.7,45.4,96.3z"/>
		<g>
			<path class="st1" d="M47.9,54.9c1.4-2,3.3-4.1,5.9-6.4c2.2-2,3.7-3.6,4.7-5s1.3-3.1,1-5c-0.3-1.8-1.2-3.3-2.7-4.4
				c-1.6-1.1-3.6-1.6-6.1-1.6c-2.6,0-5,0.6-7,1.7c-2,1.2-3.7,2.8-5,5l-9.6-6.9c2-3.6,4.9-6.5,8.9-8.5s8.5-3.1,13.8-3.1
				c5.8,0,10.7,1.4,14.5,4.1c3.8,2.7,6.1,6.3,6.7,10.9c0.4,2.8,0.2,5.2-0.5,7.2s-1.6,3.7-2.9,5.1c-1.2,1.4-2.8,2.9-4.8,4.6
				c-2.2,1.9-3.8,3.5-4.9,4.9c-1.1,1.4-1.7,3-1.8,4.9H45.7C45.8,59.5,46.5,56.9,47.9,54.9z"/>
			<circle class="st1" cx="51.8" cy="73.5" r="6.9"/>
		</g>
	</g>
</g>
</svg>
