<?xml version="1.0" encoding="utf-8"?>
<!-- Generator: Adobe Illustrator 24.1.2, SVG Export Plug-In . SVG Version: 6.00 Build 0)  -->
<svg version="1.1"
	 id="Layer_1" xmlns:inkscape="http://www.inkscape.org/namespaces/inkscape" xmlns:sodipodi="http://sodipodi.sourceforge.net/DTD/sodipodi-0.dtd" xmlns:svg="http://www.w3.org/2000/svg"
	 xmlns="http://www.w3.org/2000/svg" xmlns:xlink="http://www.w3.org/1999/xlink" x="0px" y="0px" viewBox="0 0 108.4 113.1"
	 style="enable-background:new 0 0 108.4 113.1;" xml:space="preserve">
<style type="text/css">
	.st0{opacity:0.2;}
	.st1{fill:#E0A906;}
	.st2{fill:#FFFFFF;}
</style>
<g id="g14">
	<g id="g12">
		<path id="path4" class="st0" d="M50.2,98.2c1.2-0.1,2.4-0.2,3.6-0.3L67,113.1l3.2-18.9c37.9-14.3,47.9-62.3,28.8-80.1
			C76.9-6.7,32.8-0.3,13.7,31C0.2,53.2-3.9,100.6,50.2,98.2z"/>
		<path id="path4_1_" class="st1" d="M45.2,96.2c1.2-0.1,2.4-0.2,3.6-0.3L62,111.1l3.2-18.9c37.9-14.3,47.9-62.3,28.8-80.1
			C71.9-8.7,27.8-2.3,8.7,29C-4.8,51.2-8.9,98.6,45.2,96.2z"/>
		<g id="g10">
			<path id="path6" class="st2" d="M47.7,54.8c1.4-2,3.3-4.1,5.9-6.4c2.2-2,3.7-3.6,4.7-5s1.3-3.1,1-5c-0.3-1.8-1.2-3.3-2.7-4.4
				c-1.6-1.1-3.6-1.6-6.1-1.6c-2.6,0-5,0.6-7,1.7c-2,1.2-3.7,2.8-5,5l-9.6-6.9c2-3.6,4.9-6.5,8.9-8.5s8.5-3.1,13.8-3.1
				c5.8,0,10.7,1.4,14.5,4.1s6.1,6.3,6.7,10.9c0.4,2.8,0.2,5.2-0.5,7.2s-1.6,3.7-2.9,5.1c-1.2,1.4-2.8,2.9-4.8,4.6
				c-2.2,1.9-3.8,3.5-4.9,4.9c-1.1,1.4-1.7,3-1.8,4.9H45.5C45.6,59.4,46.3,56.8,47.7,54.8z"/>
			<circle id="circle8" class="st2" cx="51.6" cy="73.4" r="6.9"/>
		</g>
	</g>
</g>
</svg>
