<?xml version="1.0" encoding="utf-8"?>
<!-- Generator: Adobe Illustrator 22.1.0, SVG Export Plug-In . SVG Version: 6.00 Build 0)  -->
<svg version="1.1"
	 id="svg4" inkscape:version="1.1.1 (3bf5ae0d25, 2021-09-20)" sodipodi:docname="reload.svg" xmlns:inkscape="http://www.inkscape.org/namespaces/inkscape" xmlns:sodipodi="http://sodipodi.sourceforge.net/DTD/sodipodi-0.dtd" xmlns:svg="http://www.w3.org/2000/svg"
	 xmlns="http://www.w3.org/2000/svg" xmlns:xlink="http://www.w3.org/1999/xlink" x="0px" y="0px" viewBox="0 0 20 21.1"
	 style="enable-background:new 0 0 20 21.1;" xml:space="preserve">
<style type="text/css">
	.st0{opacity:0.15;}
	.st1{fill:#404B96;}
</style>
<g id="g6" class="st0">
	<path id="path4" d="M16.7,7.1c-1.5-1.5-3.5-2.3-5.7-2.3v-3l-4,4l4,4v-3c3.3,0,6,2.7,6,6s-2.7,6-6,6s-6-2.7-6-6
		c0-1.6,0.6-3.1,1.8-4.2L5.3,7c-3.1,3.1-3.1,8.2,0,11.3s8.2,3.1,11.3,0C19.8,15.2,19.8,10.2,16.7,7.1z"/>
</g>
<path id="path8" class="st1" d="M16.2,5.9c-1.5-1.5-3.5-2.3-5.7-2.3v-3l-4,4l4,4v-3c3.3,0,6,2.7,6,6s-2.7,6-6,6s-6-2.7-6-6
	c0-1.6,0.6-3.1,1.8-4.2L4.8,5.8C1.7,9,1.7,14,4.8,17.2c3.1,3.1,8.2,3.1,11.3,0C19.3,14,19.3,9,16.2,5.9z"/>
</svg>
