<?xml version="1.0" encoding="UTF-8" standalone="no"?>
<!-- Generator: Adobe Illustrator 24.1.2, SVG Export Plug-In . SVG Version: 6.00 Build 0)  -->

<svg
   version="1.1"
   id="Layer_1"
   x="0px"
   y="0px"
   viewBox="0 0 146 108"
   style="enable-background:new 0 0 146 108;"
   xml:space="preserve"
   sodipodi:docname="reload_bg_right.svg"
   inkscape:version="1.1.1 (3bf5ae0d25, 2021-09-20)"
   xmlns:inkscape="http://www.inkscape.org/namespaces/inkscape"
   xmlns:sodipodi="http://sodipodi.sourceforge.net/DTD/sodipodi-0.dtd"
   xmlns="http://www.w3.org/2000/svg"
   xmlns:svg="http://www.w3.org/2000/svg"><defs
   id="defs15" /><sodipodi:namedview
   id="namedview13"
   pagecolor="#ffffff"
   bordercolor="#666666"
   borderopacity="1.0"
   inkscape:pageshadow="2"
   inkscape:pageopacity="0.0"
   inkscape:pagecheckerboard="0"
   showgrid="false"
   inkscape:zoom="6.6574074"
   inkscape:cx="72.926287"
   inkscape:cy="54"
   inkscape:window-width="1920"
   inkscape:window-height="1017"
   inkscape:window-x="-8"
   inkscape:window-y="-8"
   inkscape:window-maximized="1"
   inkscape:current-layer="Layer_1" />
<style
   type="text/css"
   id="style2">
	.st0{fill:#F5D7DA;}
	.st1{opacity:0.51;}
	.st2{fill:#515CB0;}
</style>
<g
   id="Layer_2_1_"
   transform="matrix(-1,0,0,1,146.1,0)">
	<path
   class="st0"
   d="m 143,0.2 c 0,0 35.1,127.3 -142.9,105 V 0.2 Z"
   id="path4" />
</g>
<g
   id="Layer_3"
   class="st1"
   transform="matrix(-1,0,0,1,146.1,0)">
	<g
   id="g9">
		<path
   class="st2"
   d="m 78.6,106.3 c -20.9,0 -47,-5.2 -78.5,-18.1 V 85 C 72,114.8 115.1,104.1 131.7,83.4 142.5,70 142.3,51.6 131.2,36.5 114.2,13.5 70.4,-3.2 0.1,17.7 V 14.6 C 28.7,6.2 55,3.3 77.5,6.2 c 24.9,3.1 44.9,13.3 56.2,28.5 11.9,16.2 12.1,36 0.4,50.5 -9.8,12.2 -28.2,21.1 -55.5,21.1 z"
   id="path7" />
	</g>
</g>
</svg>
