<?xml version="1.0" encoding="utf-8"?>
<!-- Generator: Adobe Illustrator 24.1.2, SVG Export Plug-In . SVG Version: 6.00 Build 0)  -->
<svg version="1.1" id="Layer_1" xmlns="http://www.w3.org/2000/svg" xmlns:xlink="http://www.w3.org/1999/xlink" x="0px" y="0px"
	 viewBox="0 0 146 108" style="enable-background:new 0 0 146 108;" xml:space="preserve">
<style type="text/css">
	.st0{fill:#F5D7DA;}
	.st1{opacity:0.51;}
	.st2{fill:#515CB0;}
</style>
<g id="Layer_2_1_">
	<path class="st0" d="M143,0.2c0,0,35.1,127.3-142.9,105V0.2H143z"/>
</g>
<g id="Layer_3" class="st1">
	<g>
		<path class="st2" d="M78.6,106.3c-20.9,0-47-5.2-78.5-18.1V85c71.9,29.8,115,19.1,131.6-1.6c10.8-13.4,10.6-31.8-0.5-46.9
			c-17-23-60.8-39.7-131.1-18.8v-3.1C28.7,6.2,55,3.3,77.5,6.2c24.9,3.1,44.9,13.3,56.2,28.5c11.9,16.2,12.1,36,0.4,50.5
			C124.3,97.4,105.9,106.3,78.6,106.3z"/>
	</g>
</g>
</svg>
