<?xml version="1.0" encoding="utf-8"?>
<!-- Generator: Adobe Illustrator 24.1.2, SVG Export Plug-In . SVG Version: 6.00 Build 0)  -->
<svg version="1.1" id="Layer_1" xmlns="http://www.w3.org/2000/svg" xmlns:xlink="http://www.w3.org/1999/xlink" x="0px" y="0px"
	 viewBox="0 0 1000.9 899.6" style="enable-background:new 0 0 1000.9 899.6;" xml:space="preserve">
<style type="text/css">
	.st0{fill:#4F7ED0;}
	.st1{fill:#6289F8;}
	.st2{fill:#79A9FC;}
	.st3{opacity:0.51;fill:#FFFFFF;enable-background:new    ;}
	.st4{fill:url(#SVGID_1_);}
	.st5{fill:url(#SVGID_2_);}
	.st6{fill:url(#SVGID_3_);}
	.st7{fill:url(#SVGID_4_);}
	.st8{fill:url(#SVGID_5_);}
	.st9{fill:url(#SVGID_6_);}
	.st10{fill:url(#SVGID_7_);}
	.st11{fill:url(#SVGID_8_);}
	.st12{fill:url(#SVGID_9_);}
	.st13{fill:url(#SVGID_10_);}
	.st14{fill:url(#SVGID_11_);}
	.st15{fill:url(#SVGID_12_);}
	.st16{fill:url(#SVGID_13_);}
	.st17{fill:url(#SVGID_14_);}
	.st18{fill:url(#SVGID_15_);}
	.st19{fill:url(#SVGID_16_);}
	.st20{fill:url(#SVGID_17_);}
	.st21{fill:url(#SVGID_18_);}
	.st22{fill:url(#SVGID_19_);}
	.st23{fill:url(#SVGID_20_);}
</style>
<g>
	<path class="st0" d="M173.5,517.6c-0.8-0.2-1.3-1-1.1-1.8s1-1.3,1.8-1.1c1,0.2,1.9,0.4,2.9,0.6c0.8,0.2,1.3,0.9,1.2,1.7
		c-0.2,0.8-0.9,1.3-1.7,1.2C175.4,518,174.5,517.8,173.5,517.6L173.5,517.6z M166.8,516C166.8,516,166.7,516,166.8,516
		c-1-0.3-2-0.5-2.9-0.8c-0.8-0.2-1.2-1-1-1.8s1-1.2,1.8-1c0.9,0.3,1.9,0.5,2.8,0.8c0.8,0.2,1.3,1,1.1,1.8
		C168.3,515.7,167.5,516.1,166.8,516z M183.2,519.3c-0.8-0.2-1.3-0.9-1.1-1.7c0.1-0.8,0.9-1.4,1.7-1.2c1,0.2,1.9,0.3,2.9,0.4
		c0.8,0.1,1.4,0.9,1.3,1.7c-0.1,0.8-0.9,1.4-1.7,1.3C185.2,519.6,184.3,519.5,183.2,519.3C183.3,519.3,183.2,519.3,183.2,519.3z
		 M157.3,513.2c-0.1,0-0.1,0-0.2,0c-0.9-0.3-1.9-0.6-2.8-1c-0.8-0.3-1.2-1.1-0.9-1.9s1.1-1.2,1.9-0.9c0.9,0.3,1.8,0.7,2.8,1
		c0.8,0.3,1.2,1.1,0.9,1.9C158.8,512.9,158,513.3,157.3,513.2z M193,520.6c-0.7-0.2-1.2-0.8-1.2-1.6c0.1-0.8,0.8-1.4,1.6-1.3
		c1,0.1,1.9,0.2,2.9,0.3c0.8,0.1,1.4,0.8,1.3,1.6c-0.1,0.8-0.8,1.4-1.6,1.3C195,520.8,194,520.7,193,520.6
		C193.1,520.6,193,520.6,193,520.6z M202.8,521.5c-0.7-0.2-1.2-0.8-1.2-1.6c0.1-0.8,0.8-1.4,1.6-1.4c1,0.1,2,0.1,2.9,0.2
		c0.8,0,1.4,0.8,1.4,1.6c-0.1,0.8-0.8,1.4-1.6,1.4C204.9,521.6,203.9,521.6,202.8,521.5C202.9,521.6,202.9,521.6,202.8,521.5z
		 M148.1,509.7c-0.1,0-0.2,0-0.3-0.1c-0.9-0.4-1.8-0.8-2.7-1.2c-0.7-0.3-1.1-1.2-0.7-2c0.3-0.7,1.2-1.1,2-0.7
		c0.9,0.4,1.8,0.8,2.7,1.2c0.8,0.3,1.1,1.2,0.8,1.9C149.5,509.5,148.8,509.8,148.1,509.7z M212.6,522.1c-0.7-0.1-1.2-0.8-1.2-1.5
		c0-0.8,0.7-1.5,1.5-1.4c1,0,2,0.1,2.9,0.1c0.8,0,1.5,0.7,1.4,1.5c0,0.8-0.7,1.5-1.5,1.4C214.7,522.2,213.7,522.1,212.6,522.1
		C212.8,522.1,212.7,522.1,212.6,522.1z M139.2,505.4c-0.1,0-0.3-0.1-0.4-0.1c-0.9-0.5-1.8-1-2.6-1.5c-0.7-0.4-0.9-1.3-0.5-2
		s1.3-0.9,2-0.5c0.8,0.5,1.7,1,2.5,1.4c0.7,0.4,1,1.3,0.6,2C140.5,505.3,139.9,505.5,139.2,505.4z M222.5,522.3
		c-0.7-0.1-1.2-0.7-1.2-1.4c0-0.8,0.7-1.5,1.5-1.5c1,0,2,0,2.9,0c0.8,0,1.5,0.6,1.5,1.5c0,0.8-0.6,1.5-1.5,1.5c-1,0-2,0-3,0
		C222.7,522.3,222.6,522.3,222.5,522.3z M232.3,522.1c-0.6-0.1-1.1-0.7-1.2-1.4c0-0.8,0.6-1.5,1.4-1.5c1,0,2-0.1,2.9-0.1
		c0.8,0,1.5,0.6,1.5,1.4c0,0.8-0.6,1.5-1.4,1.5c-1,0-2,0.1-3,0.1C232.6,522.1,232.5,522.1,232.3,522.1z M130.8,500.3
		c-0.2,0-0.4-0.1-0.5-0.2c-0.8-0.6-1.6-1.2-2.4-1.7c-0.7-0.5-0.8-1.4-0.3-2.1c0.5-0.7,1.4-0.8,2.1-0.3c0.8,0.6,1.6,1.1,2.4,1.7
		c0.7,0.5,0.8,1.4,0.4,2.1C132,500.2,131.4,500.4,130.8,500.3z M242.2,521.6c-0.6-0.1-1.1-0.7-1.2-1.4c-0.1-0.8,0.6-1.5,1.4-1.6
		c1-0.1,2-0.1,2.9-0.2c0.8-0.1,1.5,0.6,1.6,1.4c0.1,0.8-0.6,1.5-1.4,1.6c-1,0.1-2,0.1-3,0.2C242.4,521.7,242.3,521.7,242.2,521.6z
		 M123.1,494.2c-0.2-0.1-0.5-0.2-0.7-0.3c-0.7-0.7-1.5-1.4-2.2-2.1c-0.6-0.6-0.6-1.5,0-2.1s1.5-0.6,2.1,0c0.7,0.7,1.4,1.3,2.1,2
		c0.6,0.5,0.7,1.5,0.1,2.1C124.1,494.1,123.6,494.3,123.1,494.2z M252,520.9c-0.6-0.1-1.1-0.7-1.2-1.3c-0.1-0.8,0.5-1.5,1.3-1.6
		c1-0.1,2-0.2,2.9-0.3c0.8-0.1,1.5,0.5,1.6,1.3s-0.5,1.5-1.3,1.6c-1,0.1-2,0.2-3,0.3C252.3,520.9,252.1,520.9,252,520.9z
		 M261.8,519.9c-0.6-0.1-1.1-0.6-1.2-1.3c-0.1-0.8,0.5-1.5,1.3-1.6c1-0.1,1.9-0.2,2.9-0.3c0.8-0.1,1.5,0.5,1.6,1.3s-0.5,1.5-1.3,1.6
		c-1,0.1-2,0.2-2.9,0.3C262.1,519.9,261.9,519.9,261.8,519.9z M116.3,487.1c-0.3-0.1-0.6-0.2-0.8-0.5c-0.6-0.8-1.3-1.6-1.9-2.4
		c-0.5-0.7-0.3-1.6,0.3-2.1c0.7-0.5,1.6-0.3,2.1,0.3c0.6,0.8,1.2,1.5,1.8,2.3c0.5,0.6,0.4,1.6-0.2,2.1
		C117.2,487.1,116.7,487.2,116.3,487.1z M271.6,518.7c-0.6-0.1-1.1-0.6-1.2-1.2c-0.1-0.8,0.5-1.6,1.3-1.7c1-0.1,1.9-0.3,2.9-0.4
		c0.8-0.1,1.6,0.4,1.7,1.3c0.1,0.8-0.4,1.6-1.3,1.7c-1,0.1-2,0.3-2.9,0.4C271.9,518.7,271.7,518.7,271.6,518.7z M281.3,517.2
		c-0.6-0.1-1.1-0.6-1.2-1.2c-0.1-0.8,0.4-1.6,1.2-1.7c1-0.2,1.9-0.3,2.9-0.5c0.8-0.1,1.6,0.4,1.7,1.2s-0.4,1.6-1.2,1.7
		c-1,0.2-1.9,0.3-2.9,0.5C281.6,517.3,281.5,517.3,281.3,517.2z M110.7,479c-0.4-0.1-0.8-0.3-1-0.7c-0.5-0.9-1-1.8-1.4-2.7
		c-0.4-0.7-0.1-1.6,0.7-2c0.7-0.4,1.6-0.1,2,0.7c0.4,0.9,0.9,1.7,1.4,2.5c0.4,0.7,0.2,1.6-0.6,2C111.4,479,111,479.1,110.7,479z
		 M291,515.6c-0.6-0.1-1-0.6-1.1-1.2c-0.1-0.8,0.4-1.6,1.2-1.7c1-0.2,1.9-0.3,2.9-0.5c0.8-0.1,1.6,0.4,1.7,1.2s-0.4,1.6-1.2,1.7
		c-1,0.2-1.9,0.3-2.9,0.5C291.4,515.7,291.2,515.7,291,515.6z M300.7,513.8c-0.6-0.1-1-0.6-1.1-1.2c-0.2-0.8,0.4-1.6,1.2-1.7
		c1-0.2,1.9-0.4,2.9-0.6c0.8-0.2,1.6,0.4,1.7,1.2c0.2,0.8-0.4,1.6-1.2,1.7c-1,0.2-1.9,0.4-2.9,0.6
		C301.1,513.9,300.9,513.9,300.7,513.8z M106.6,470c-0.5-0.1-0.9-0.5-1.1-1c-0.3-1-0.6-1.9-0.9-2.9c-0.2-0.8,0.2-1.6,1-1.8
		c0.8-0.2,1.6,0.2,1.8,1c0.3,0.9,0.6,1.8,0.9,2.7c0.3,0.8-0.1,1.6-0.9,1.9C107.2,470.1,106.9,470.1,106.6,470z M310.4,511.9
		c-0.6-0.1-1-0.6-1.1-1.2c-0.2-0.8,0.4-1.6,1.2-1.7c1-0.2,1.9-0.4,2.9-0.6c0.8-0.2,1.6,0.3,1.7,1.1c0.2,0.8-0.3,1.6-1.1,1.7
		c-1,0.2-1.9,0.4-2.9,0.6C310.7,512,310.5,512,310.4,511.9z M320,509.9c-0.6-0.1-1-0.5-1.1-1.1c-0.2-0.8,0.3-1.6,1.1-1.8l2.9-0.6
		c0.8-0.2,1.6,0.3,1.8,1.1c0.2,0.8-0.3,1.6-1.1,1.8l-2.9,0.6C320.4,510,320.2,510,320,509.9z M104.2,460.5c-0.6-0.1-1.1-0.6-1.2-1.2
		c-0.2-1-0.3-2-0.4-3c-0.1-0.8,0.5-1.5,1.3-1.6s1.5,0.5,1.6,1.3c0.1,1,0.2,1.9,0.4,2.9c0.1,0.8-0.4,1.6-1.2,1.7
		C104.6,460.5,104.4,460.5,104.2,460.5z M329.6,507.8c-0.5-0.1-1-0.5-1.1-1.1c-0.2-0.8,0.3-1.6,1.1-1.8l2.9-0.6
		c0.8-0.2,1.6,0.3,1.8,1.1c0.2,0.8-0.3,1.6-1.1,1.8l-2.9,0.6C330,507.9,329.8,507.8,329.6,507.8z M339.2,505.6
		c-0.5-0.1-1-0.5-1.1-1.1c-0.2-0.8,0.3-1.6,1.1-1.8l2.9-0.7c0.8-0.2,1.6,0.3,1.8,1.1c0.2,0.8-0.3,1.6-1.1,1.8l-2.9,0.7
		C339.7,505.7,339.4,505.7,339.2,505.6z M348.8,503.4c-0.5-0.1-1-0.5-1.1-1.1c-0.2-0.8,0.3-1.6,1.1-1.8l2.9-0.7
		c0.8-0.2,1.6,0.3,1.8,1.1c0.2,0.8-0.3,1.6-1.1,1.8l-2.9,0.7C349.3,503.5,349,503.5,348.8,503.4z M103.6,450.7
		c-0.7-0.1-1.2-0.8-1.2-1.5c0-1,0.1-2,0.1-3c0.1-0.8,0.8-1.4,1.6-1.4c0.8,0.1,1.4,0.8,1.4,1.6c-0.1,1-0.1,1.9-0.1,2.9
		c0,0.8-0.7,1.5-1.5,1.5C103.8,450.7,103.7,450.7,103.6,450.7z M358.4,501.2c-0.5-0.1-1-0.5-1.1-1.1c-0.2-0.8,0.3-1.6,1.1-1.8
		l2.9-0.7c0.8-0.2,1.6,0.3,1.8,1.1c0.2,0.8-0.3,1.6-1.1,1.8l-2.9,0.7C358.9,501.2,358.6,501.2,358.4,501.2z M368,498.9
		c-0.5-0.1-1-0.5-1.1-1.1c-0.2-0.8,0.3-1.6,1.1-1.8l2.9-0.7c0.8-0.2,1.6,0.3,1.8,1.1c0.2,0.8-0.3,1.6-1.1,1.8l-2.9,0.7
		C368.5,499,368.2,499,368,498.9z M104.5,440.9c-0.8-0.2-1.3-0.9-1.1-1.7c0.2-0.9,0.3-1.9,0.5-2.8v-0.2c0.2-0.8,1-1.3,1.8-1.1
		c0.8,0.2,1.3,1,1.1,1.8v0.2c-0.2,0.9-0.4,1.8-0.5,2.7C106.2,440.5,105.4,441,104.5,440.9C104.6,440.9,104.6,440.9,104.5,440.9z
		 M377.6,496.7c-0.5-0.1-1-0.5-1.1-1.1c-0.2-0.8,0.3-1.6,1.1-1.8l2.9-0.7c0.8-0.2,1.6,0.3,1.8,1.1c0.2,0.8-0.3,1.6-1.1,1.8l-2.9,0.7
		C378.1,496.7,377.9,496.7,377.6,496.7z M738.8,573.3c-0.3-0.1-0.6-0.2-0.8-0.5c-0.5-0.6-0.5-1.6,0.2-2.1c0.5-0.4,1-0.9,1.5-1.4
		c0.6-0.6,1.5-0.6,2.1,0s0.6,1.5,0,2.1c-0.5,0.5-1.1,1-1.7,1.5C739.8,573.2,739.3,573.4,738.8,573.3z M387.3,494.5
		c-0.5-0.1-1-0.5-1.1-1.1c-0.2-0.8,0.3-1.6,1.1-1.8l2.9-0.6c0.8-0.2,1.6,0.3,1.8,1.1c0.2,0.8-0.3,1.6-1.1,1.8l-2.9,0.6
		C387.7,494.5,387.5,494.5,387.3,494.5z M106.9,431.3L106.9,431.3c-0.9-0.2-1.3-1.1-1.1-1.9c0.3-1,0.6-1.9,1-2.9
		c0.3-0.8,1.1-1.2,1.9-0.9c0.8,0.3,1.2,1.1,0.9,1.9c-0.3,0.9-0.6,1.8-0.9,2.8C108.4,431,107.6,431.5,106.9,431.3z M396.9,492.4
		c-0.5-0.1-1-0.5-1.1-1.1c-0.2-0.8,0.3-1.6,1.1-1.8l2.9-0.6c0.8-0.2,1.6,0.3,1.8,1.1c0.2,0.8-0.3,1.6-1.1,1.8l-2.9,0.6
		C397.3,492.4,397.1,492.4,396.9,492.4z M744.7,566.5c-0.2,0-0.3-0.1-0.5-0.2c-0.7-0.4-0.9-1.4-0.5-2c0.5-0.8,1-1.6,1.4-2.4
		c0.4-0.7,1.3-1,2-0.6s1,1.3,0.6,2c-0.5,0.9-1,1.8-1.5,2.7C746,566.4,745.3,566.6,744.7,566.5z M406.5,490.3c-0.6-0.1-1-0.6-1.1-1.1
		c-0.2-0.8,0.3-1.6,1.1-1.7l2.9-0.6c0.8-0.2,1.6,0.4,1.7,1.2c0.2,0.8-0.4,1.6-1.2,1.7l-2.9,0.6C406.9,490.4,406.7,490.4,406.5,490.3
		z M416.2,488.4c-0.6-0.1-1-0.6-1.1-1.2c-0.2-0.8,0.4-1.6,1.2-1.7l2.9-0.6c0.8-0.2,1.6,0.4,1.7,1.2c0.2,0.8-0.4,1.6-1.2,1.7
		l-2.9,0.6C416.6,488.4,416.4,488.4,416.2,488.4z M110.4,422.1c-0.1,0-0.2-0.1-0.3-0.1c-0.7-0.3-1.1-1.2-0.8-1.9
		c0.4-0.9,0.8-1.8,1.3-2.7c0.4-0.7,1.2-1.1,2-0.7c0.7,0.4,1.1,1.2,0.7,2c-0.4,0.9-0.8,1.8-1.2,2.7
		C111.7,421.9,111,422.2,110.4,422.1z M748.7,557.5L748.7,557.5c-0.9-0.2-1.3-1.1-1.1-1.8s0.4-1.4,0.5-2.1c0-0.2,0.1-0.5,0.1-0.7
		c0.2-0.8,0.9-1.3,1.7-1.2c0.8,0.2,1.3,0.9,1.2,1.7c0,0.2-0.1,0.5-0.2,0.7c-0.2,0.8-0.3,1.5-0.6,2.3
		C750.2,557.2,749.5,557.6,748.7,557.5z M425.9,486.5c-0.6-0.1-1-0.6-1.1-1.2c-0.1-0.8,0.4-1.6,1.2-1.7l2.9-0.5
		c0.8-0.1,1.6,0.4,1.7,1.2c0.1,0.8-0.4,1.6-1.2,1.7l-2.9,0.5C426.3,486.6,426.1,486.6,425.9,486.5z M435.6,484.8
		c-0.6-0.1-1-0.6-1.1-1.2c-0.1-0.8,0.4-1.6,1.2-1.7l2.9-0.5c0.8-0.1,1.6,0.4,1.7,1.2c0.1,0.8-0.4,1.6-1.2,1.7l-2.9,0.5
		C435.9,484.8,435.8,484.8,435.6,484.8z M114.8,413.3c-0.1,0-0.3-0.1-0.4-0.2c-0.7-0.4-1-1.3-0.6-2c0.5-0.9,1-1.7,1.5-2.6
		c0.4-0.7,1.3-0.9,2-0.5s0.9,1.3,0.5,2c-0.5,0.8-1,1.7-1.5,2.5C116,413.1,115.4,413.4,114.8,413.3z M445.3,483.2
		c-0.6-0.1-1-0.6-1.1-1.2c-0.1-0.8,0.4-1.6,1.2-1.7l2.9-0.5c0.8-0.1,1.6,0.4,1.7,1.2c0.1,0.8-0.4,1.6-1.2,1.7l-2.9,0.5
		C445.6,483.2,445.5,483.2,445.3,483.2z M750.1,547.8c-0.7-0.1-1.2-0.8-1.2-1.5c0-0.9,0-1.9,0-2.9c0-0.8,0.6-1.5,1.4-1.5
		c0.8,0,1.5,0.6,1.5,1.4c0,1,0,2,0,3.1c0,0.8-0.7,1.5-1.5,1.4C750.3,547.8,750.2,547.8,750.1,547.8z M455,481.6
		c-0.6-0.1-1.1-0.6-1.2-1.2c-0.1-0.8,0.4-1.6,1.2-1.7l2.9-0.4c0.8-0.1,1.6,0.4,1.7,1.2s-0.4,1.6-1.2,1.7l-2.9,0.4
		C455.4,481.7,455.2,481.7,455,481.6z M464.8,480.2c-0.6-0.1-1.1-0.6-1.2-1.2c-0.1-0.8,0.5-1.6,1.3-1.7l2.9-0.4
		c0.8-0.1,1.6,0.5,1.7,1.3s-0.5,1.6-1.3,1.7l-2.9,0.4C465.1,480.3,464.9,480.3,464.8,480.2z M119.9,404.9c-0.2,0-0.4-0.1-0.5-0.2
		c-0.7-0.5-0.9-1.4-0.4-2.1c0.6-0.8,1.1-1.7,1.7-2.5c0.5-0.7,1.4-0.8,2.1-0.4c0.7,0.5,0.8,1.4,0.4,2.1c-0.6,0.8-1.1,1.6-1.7,2.4
		C121.1,404.8,120.5,405,119.9,404.9z M474.6,479c-0.6-0.1-1.1-0.6-1.2-1.3c-0.1-0.8,0.5-1.5,1.3-1.7c1-0.1,2-0.2,2.9-0.4
		c0.8-0.1,1.5,0.5,1.6,1.3s-0.5,1.5-1.3,1.6c-1,0.1-2,0.2-2.9,0.4C474.9,479,474.7,479,474.6,479z M749.3,537.9
		c-0.6-0.1-1-0.6-1.1-1.2c-0.2-0.9-0.4-1.9-0.6-2.8c-0.2-0.8,0.3-1.6,1.1-1.8s1.6,0.3,1.8,1.1c0.2,1,0.5,2,0.6,3
		c0.2,0.8-0.4,1.6-1.2,1.7C749.7,538,749.5,538,749.3,537.9z M484.3,477.8c-0.6-0.1-1.1-0.6-1.2-1.3c-0.1-0.8,0.5-1.5,1.3-1.6
		l2.9-0.3c0.8-0.1,1.5,0.5,1.6,1.3s-0.5,1.5-1.3,1.6l-2.9,0.3C484.7,477.8,484.5,477.8,484.3,477.8z M494.1,476.8
		c-0.6-0.1-1.1-0.6-1.2-1.3c-0.1-0.8,0.5-1.5,1.3-1.6c1-0.1,2-0.2,3-0.3c0.8-0.1,1.5,0.5,1.6,1.3s-0.5,1.5-1.3,1.6
		c-1,0.1-2,0.2-2.9,0.3C494.4,476.8,494.3,476.8,494.1,476.8z M125.7,396.9c-0.2,0-0.4-0.1-0.6-0.3c-0.6-0.5-0.8-1.4-0.3-2.1
		c0.6-0.8,1.2-1.6,1.9-2.3c0.5-0.6,1.4-0.7,2.1-0.2c0.6,0.5,0.7,1.4,0.2,2.1c-0.6,0.8-1.2,1.5-1.8,2.3
		C126.8,396.8,126.2,397,125.7,396.9z M746.6,528.5c-0.5-0.1-0.9-0.4-1.1-0.9c-0.4-0.9-0.7-1.8-1.1-2.6c-0.3-0.7,0-1.6,0.7-2
		c0.7-0.3,1.6,0,2,0.7c0.4,0.9,0.8,1.9,1.2,2.8c0.3,0.8-0.1,1.6-0.8,1.9C747.2,528.5,746.9,528.6,746.6,528.5z M504,475.9
		c-0.6-0.1-1.1-0.7-1.2-1.3c-0.1-0.8,0.5-1.5,1.3-1.6l3-0.2c0.8-0.1,1.5,0.5,1.6,1.4c0.1,0.8-0.5,1.5-1.4,1.6l-2.9,0.2
		C504.3,475.9,504.1,475.9,504,475.9z M513.8,475.1c-0.6-0.1-1.1-0.7-1.2-1.3c-0.1-0.8,0.6-1.5,1.4-1.6c1-0.1,2-0.1,3-0.2
		c0.8-0.1,1.5,0.6,1.6,1.4s-0.6,1.5-1.4,1.6c-1,0.1-2,0.1-2.9,0.2C514.1,475.1,513.9,475.1,513.8,475.1z M523.6,474.5
		c-0.6-0.1-1.1-0.7-1.2-1.4c0-0.8,0.6-1.5,1.4-1.6c1-0.1,2-0.1,3-0.2c0.8,0,1.5,0.6,1.6,1.4c0,0.8-0.6,1.5-1.4,1.6
		c-1,0.1-2,0.1-2.9,0.2C523.9,474.5,523.8,474.5,523.6,474.5z M132,389.3c-0.2-0.1-0.5-0.2-0.7-0.3c-0.6-0.5-0.7-1.5-0.1-2.1
		c0.7-0.7,1.3-1.5,2-2.2c0.6-0.6,1.5-0.6,2.1-0.1c0.6,0.6,0.6,1.5,0.1,2.1c-0.7,0.7-1.3,1.4-2,2.2C133,389.3,132.5,389.4,132,389.3z
		 M742.1,519.8c-0.4-0.1-0.7-0.3-0.9-0.6c-0.5-0.8-1.1-1.6-1.6-2.3s-0.4-1.6,0.3-2.1s1.6-0.4,2.1,0.3c0.6,0.8,1.2,1.6,1.7,2.5
		c0.4,0.7,0.3,1.6-0.4,2C742.8,519.8,742.4,519.8,742.1,519.8z M533.5,474c-0.6-0.1-1.1-0.7-1.2-1.4c0-0.8,0.6-1.5,1.4-1.5
		c1,0,2-0.1,3-0.1c0.8,0,1.5,0.6,1.5,1.4s-0.6,1.5-1.4,1.5c-1,0-2,0.1-2.9,0.1C533.7,474,533.6,474,533.5,474z M543.3,473.6
		c-0.7-0.1-1.1-0.7-1.2-1.4c0-0.8,0.6-1.5,1.4-1.5c1,0,2-0.1,3-0.1c0.8,0,1.5,0.6,1.5,1.4s-0.6,1.5-1.4,1.5c-1,0-2,0-2.9,0.1
		C543.6,473.7,543.4,473.7,543.3,473.6z M553.2,473.4c-0.7-0.1-1.2-0.7-1.2-1.4c0-0.8,0.6-1.5,1.5-1.5c1,0,2,0,3,0
		c0.8,0,1.5,0.7,1.5,1.5s-0.7,1.5-1.5,1.5c-1,0-2,0-3,0C553.4,473.5,553.3,473.5,553.2,473.4z M735.9,512.1
		c-0.3-0.1-0.5-0.2-0.7-0.4c-0.7-0.7-1.4-1.4-2.1-2c-0.6-0.6-0.6-1.5-0.1-2.1c0.6-0.6,1.5-0.6,2.1-0.1c0.7,0.7,1.5,1.4,2.2,2.1
		c0.6,0.6,0.6,1.5,0,2.1C736.8,512.1,736.3,512.2,735.9,512.1z M563,473.4c-0.7-0.1-1.2-0.7-1.2-1.4c0-0.8,0.7-1.5,1.5-1.5
		c1,0,2,0,3,0c0.8,0,1.5,0.7,1.5,1.5s-0.7,1.5-1.5,1.5c-1,0-2,0-3,0C563.2,473.4,563.1,473.4,563,473.4z M138.7,382.1
		c-0.3-0.1-0.5-0.2-0.7-0.4c-0.6-0.6-0.6-1.5,0-2.1c0.7-0.7,1.4-1.4,2.1-2.1c0.6-0.6,1.5-0.6,2.1,0s0.6,1.5,0,2.1
		c-0.7,0.7-1.4,1.4-2.1,2.1C139.7,382.1,139.2,382.2,138.7,382.1z M572.9,473.5c-0.7-0.1-1.2-0.8-1.2-1.5c0-0.8,0.7-1.5,1.5-1.4
		c1,0,2,0,3,0.1c0.8,0,1.5,0.7,1.4,1.5c0,0.8-0.7,1.5-1.5,1.4c-1,0-2,0-3-0.1C573.1,473.5,573,473.5,572.9,473.5z M728.5,505.6
		c-0.2,0-0.4-0.1-0.6-0.3c-0.8-0.6-1.6-1.1-2.4-1.7c-0.7-0.5-0.8-1.4-0.4-2.1c0.5-0.7,1.4-0.8,2.1-0.4c0.8,0.6,1.6,1.2,2.5,1.8
		c0.7,0.5,0.8,1.4,0.3,2.1C729.6,505.6,729,505.8,728.5,505.6z M582.8,473.8c-0.7-0.1-1.2-0.8-1.2-1.5c0-0.8,0.7-1.5,1.5-1.4
		c1,0,2,0.1,3,0.1c0.8,0,1.4,0.7,1.4,1.5s-0.7,1.4-1.5,1.4c-1,0-2-0.1-2.9-0.1C582.9,473.8,582.8,473.8,582.8,473.8z M592.6,474.2
		c-0.7-0.1-1.2-0.8-1.2-1.5c0-0.8,0.7-1.4,1.6-1.4c1,0.1,2,0.1,3,0.2c0.8,0.1,1.4,0.7,1.4,1.6c0,0.8-0.7,1.4-1.6,1.4
		c-1-0.1-2-0.1-2.9-0.2C592.8,474.3,592.7,474.2,592.6,474.2z M720.2,500.3c-0.1,0-0.3-0.1-0.4-0.2c-0.8-0.5-1.7-0.9-2.6-1.4
		c-0.7-0.4-1-1.3-0.6-2s1.3-1,2-0.6c0.9,0.5,1.8,0.9,2.6,1.4c0.7,0.4,1,1.3,0.6,2C721.5,500.1,720.8,500.4,720.2,500.3z
		 M602.4,474.8c-0.7-0.2-1.2-0.8-1.2-1.5c0.1-0.8,0.8-1.4,1.6-1.4c1,0.1,2,0.1,3,0.2c0.8,0.1,1.4,0.8,1.4,1.6
		c-0.1,0.8-0.8,1.4-1.6,1.4c-1-0.1-2-0.1-2.9-0.2C602.6,474.9,602.5,474.9,602.4,474.8z M612.3,475.6c-0.7-0.2-1.2-0.8-1.2-1.6
		c0.1-0.8,0.8-1.4,1.6-1.3c1,0.1,2,0.2,3,0.3c0.8,0.1,1.4,0.8,1.3,1.6c-0.1,0.8-0.8,1.4-1.6,1.3c-1-0.1-2-0.2-2.9-0.3
		C612.4,475.6,612.3,475.6,612.3,475.6z M145.8,375.3c-0.3-0.1-0.6-0.2-0.8-0.4c-0.6-0.6-0.5-1.5,0.1-2.1c0.7-0.7,1.5-1.3,2.2-2
		c0.6-0.5,1.5-0.5,2.1,0.1c0.5,0.6,0.5,1.5-0.1,2.1c-0.7,0.7-1.4,1.3-2.2,2C146.8,375.3,146.3,375.4,145.8,375.3z M711.4,495.9
		c-0.1,0-0.2-0.1-0.3-0.1c-0.9-0.4-1.8-0.8-2.7-1.1c-0.8-0.3-1.1-1.2-0.8-1.9c0.3-0.8,1.2-1.1,1.9-0.8c0.9,0.4,1.8,0.8,2.8,1.2
		c0.7,0.3,1.1,1.2,0.8,1.9C712.8,495.7,712.1,496,711.4,495.9z M622.1,476.6c-0.7-0.2-1.2-0.8-1.2-1.6c0.1-0.8,0.8-1.4,1.6-1.3
		c1,0.1,2,0.2,2.9,0.3c0.8,0.1,1.4,0.8,1.3,1.6c-0.1,0.8-0.8,1.4-1.6,1.3C624.1,476.8,623.1,476.7,622.1,476.6
		C622.2,476.6,622.1,476.6,622.1,476.6z M631.9,477.7c-0.7-0.2-1.3-0.9-1.2-1.6c0.1-0.8,0.8-1.4,1.7-1.3c1,0.1,2,0.2,2.9,0.4
		c0.8,0.1,1.4,0.9,1.3,1.7c-0.1,0.8-0.9,1.4-1.7,1.3c-1-0.1-1.9-0.3-2.9-0.4C632,477.7,631.9,477.7,631.9,477.7z M702.2,492.3
		c-0.1,0-0.1,0-0.2,0c-0.9-0.3-1.8-0.6-2.8-0.9c-0.8-0.3-1.2-1.1-1-1.9c0.3-0.8,1.1-1.2,1.9-1c0.9,0.3,1.9,0.6,2.8,0.9
		c0.8,0.3,1.2,1.1,0.9,1.9C703.7,492,702.9,492.5,702.2,492.3z M641.6,479c-0.8-0.2-1.3-0.9-1.2-1.7c0.1-0.8,0.9-1.4,1.7-1.3
		c1,0.1,2,0.3,2.9,0.4c0.8,0.1,1.4,0.9,1.2,1.7c-0.1,0.8-0.9,1.4-1.7,1.2C643.7,479.4,642.7,479.2,641.6,479
		C641.7,479.1,641.7,479.1,641.6,479z M651.4,480.6c-0.8-0.2-1.3-0.9-1.1-1.7c0.1-0.8,0.9-1.4,1.7-1.2c1,0.2,1.9,0.3,2.9,0.5
		c0.8,0.1,1.3,0.9,1.2,1.7c-0.1,0.8-0.9,1.3-1.7,1.2C653.4,480.9,652.4,480.7,651.4,480.6L651.4,480.6z M692.8,489.4
		C692.8,489.4,692.7,489.3,692.8,489.4c-1-0.3-2-0.5-2.9-0.8c-0.8-0.2-1.3-1-1-1.8c0.2-0.8,1-1.2,1.8-1c1,0.3,1.9,0.5,2.9,0.8
		c0.8,0.2,1.2,1,1,1.8C694.3,489.1,693.5,489.5,692.8,489.4z M661.1,482.3c-0.8-0.2-1.3-0.9-1.1-1.7c0.1-0.8,0.9-1.3,1.7-1.2
		c1,0.2,1.9,0.4,2.9,0.5c0.8,0.1,1.3,0.9,1.2,1.7c-0.2,0.8-0.9,1.3-1.7,1.2C663,482.6,662.1,482.4,661.1,482.3L661.1,482.3z
		 M683.2,486.9L683.2,486.9c-1-0.2-1.9-0.5-2.9-0.7c-0.8-0.2-1.3-1-1.1-1.8s1-1.3,1.8-1.1l0,0c1,0.2,1.9,0.4,2.9,0.7
		c0.8,0.2,1.3,1,1.1,1.8C684.8,486.6,684,487.1,683.2,486.9z M670.7,484.1c-0.8-0.2-1.3-0.9-1.1-1.7c0.2-0.8,0.9-1.3,1.7-1.1
		c1,0.2,1.9,0.4,2.9,0.6l0,0c0.8,0.2,1.3,1,1.1,1.8s-1,1.3-1.8,1.1C672.7,484.5,671.7,484.3,670.7,484.1L670.7,484.1z M153.2,368.7
		c-0.3-0.1-0.6-0.2-0.8-0.5c-0.5-0.6-0.5-1.6,0.2-2.1c0.8-0.6,1.5-1.3,2.3-1.9c0.6-0.5,1.6-0.4,2.1,0.2s0.4,1.6-0.2,2.1
		c-0.7,0.6-1.5,1.3-2.2,1.9C154.1,368.7,153.6,368.8,153.2,368.7z M160.7,362.4c-0.3-0.1-0.6-0.2-0.8-0.5c-0.5-0.6-0.4-1.6,0.2-2.1
		c0.8-0.6,1.5-1.2,2.3-1.8c0.6-0.5,1.6-0.4,2.1,0.3c0.5,0.6,0.4,1.6-0.3,2.1c-0.8,0.6-1.5,1.2-2.3,1.8
		C161.6,362.4,161.2,362.5,160.7,362.4z M168.5,356.4c-0.3-0.1-0.7-0.3-0.9-0.6c-0.5-0.7-0.4-1.6,0.3-2.1c0.8-0.6,1.6-1.2,2.4-1.8
		c0.7-0.5,1.6-0.3,2.1,0.3c0.5,0.7,0.3,1.6-0.3,2.1c-0.8,0.6-1.6,1.2-2.4,1.7C169.4,356.4,168.9,356.5,168.5,356.4z M176.5,350.6
		c-0.4-0.1-0.7-0.3-0.9-0.6c-0.5-0.7-0.3-1.6,0.4-2.1c0.8-0.6,1.6-1.1,2.4-1.7c0.7-0.5,1.6-0.3,2.1,0.4c0.5,0.7,0.3,1.6-0.4,2.1
		c-0.8,0.6-1.6,1.1-2.4,1.7C177.3,350.7,176.9,350.7,176.5,350.6z M184.7,345.1c-0.4-0.1-0.7-0.3-0.9-0.6c-0.4-0.7-0.3-1.6,0.4-2
		c0.8-0.5,1.7-1.1,2.5-1.6c0.7-0.4,1.6-0.2,2,0.4c0.4,0.7,0.2,1.6-0.4,2c-0.8,0.5-1.7,1.1-2.5,1.6
		C185.5,345.1,185.1,345.2,184.7,345.1z M193,339.9c-0.4-0.1-0.7-0.3-0.9-0.7c-0.4-0.7-0.2-1.6,0.5-2c0.8-0.5,1.7-1,2.5-1.5
		c0.7-0.4,1.6-0.2,2,0.5s0.2,1.6-0.5,2c-0.8,0.5-1.7,1-2.5,1.5C193.8,339.9,193.4,339.9,193,339.9z M201.5,334.8
		c-0.4-0.1-0.8-0.3-1-0.7c-0.4-0.7-0.2-1.6,0.5-2c0.9-0.5,1.7-1,2.6-1.5c0.7-0.4,1.6-0.2,2,0.6c0.4,0.7,0.2,1.6-0.6,2
		c-0.9,0.5-1.7,1-2.6,1.5C202.2,334.8,201.9,334.9,201.5,334.8z M210.1,330c-0.4-0.1-0.8-0.3-1-0.7c-0.4-0.7-0.1-1.6,0.6-2
		c0.9-0.5,1.7-0.9,2.6-1.4c0.7-0.4,1.6-0.1,2,0.6s0.1,1.6-0.6,2c-0.9,0.5-1.7,0.9-2.6,1.4C210.8,330,210.5,330.1,210.1,330z
		 M218.8,325.4c-0.4-0.1-0.8-0.4-1-0.8c-0.4-0.7-0.1-1.6,0.6-2c0.9-0.5,1.8-0.9,2.6-1.3c0.7-0.4,1.6-0.1,2,0.7
		c0.4,0.7,0.1,1.6-0.7,2c-0.9,0.4-1.8,0.9-2.6,1.3C219.5,325.4,219.2,325.5,218.8,325.4z M227.7,321c-0.4-0.1-0.8-0.4-1-0.8
		c-0.4-0.7-0.1-1.6,0.7-2c0.9-0.4,1.8-0.9,2.7-1.3c0.7-0.4,1.6,0,2,0.7s0,1.6-0.7,2c-0.9,0.4-1.8,0.9-2.7,1.3
		C228.3,321,228,321,227.7,321z M236.6,316.7c-0.4-0.1-0.8-0.4-1-0.8c-0.3-0.7,0-1.6,0.7-2c0.9-0.4,1.8-0.8,2.7-1.2
		c0.7-0.3,1.6,0,2,0.7c0.3,0.7,0,1.6-0.7,2c-0.9,0.4-1.8,0.8-2.7,1.2C237.2,316.8,236.9,316.8,236.6,316.7z M245.5,312.7
		c-0.4-0.1-0.8-0.4-1-0.8c-0.3-0.7,0-1.6,0.8-2c0.9-0.4,1.8-0.8,2.7-1.2c0.7-0.3,1.6,0,1.9,0.8c0.3,0.7,0,1.6-0.8,1.9
		c-0.9,0.4-1.8,0.8-2.7,1.2C246.1,312.7,245.8,312.7,245.5,312.7z M254.6,308.8c-0.5-0.1-0.9-0.4-1.1-0.9c-0.3-0.8,0-1.6,0.8-1.9
		c0.9-0.4,1.8-0.8,2.7-1.1c0.8-0.3,1.6,0,1.9,0.8s0,1.6-0.8,1.9c-0.9,0.4-1.8,0.8-2.7,1.1C255.2,308.8,254.9,308.8,254.6,308.8z
		 M263.7,305c-0.5-0.1-0.9-0.4-1.1-0.9c-0.3-0.8,0.1-1.6,0.8-1.9c0.9-0.4,1.8-0.7,2.7-1.1c0.8-0.3,1.6,0.1,1.9,0.8
		c0.3,0.8-0.1,1.6-0.8,1.9c-0.9,0.4-1.8,0.7-2.7,1.1C264.3,305,264,305,263.7,305z M272.8,301.3c-0.5-0.1-0.9-0.4-1.1-0.9
		c-0.3-0.8,0.1-1.6,0.8-1.9c0.9-0.4,1.8-0.7,2.8-1.1c0.8-0.3,1.6,0.1,1.9,0.8c0.3,0.8-0.1,1.6-0.8,1.9c-0.9,0.4-1.8,0.7-2.7,1.1
		C273.4,301.4,273.1,301.4,272.8,301.3z M282,297.8c-0.5-0.1-0.9-0.4-1.1-0.9c-0.3-0.8,0.1-1.6,0.9-1.9l2.8-1
		c0.8-0.3,1.6,0.1,1.9,0.9s-0.1,1.6-0.9,1.9l-2.8,1C282.6,297.9,282.3,297.9,282,297.8z M291.3,294.4c-0.5-0.1-0.9-0.4-1.1-0.9
		c-0.3-0.8,0.1-1.6,0.9-1.9l2.8-1c0.8-0.3,1.6,0.1,1.9,0.9s-0.1,1.6-0.9,1.9l-2.8,1C291.8,294.4,291.5,294.4,291.3,294.4z
		 M300.5,291c-0.5-0.1-0.9-0.4-1.1-0.9c-0.3-0.8,0.1-1.6,0.9-1.9l2.8-1c0.8-0.3,1.6,0.1,1.9,0.9s-0.1,1.6-0.9,1.9l-2.8,1
		C301.1,291.1,300.8,291.1,300.5,291z M309.8,287.8c-0.5-0.1-0.9-0.5-1.1-1c-0.3-0.8,0.1-1.6,0.9-1.9l2.8-1c0.8-0.3,1.6,0.1,1.9,0.9
		s-0.1,1.6-0.9,1.9l-2.8,1C310.4,287.8,310.1,287.8,309.8,287.8z M319.2,284.6c-0.5-0.1-0.9-0.5-1.1-1c-0.3-0.8,0.2-1.6,0.9-1.9
		l2.8-0.9c0.8-0.3,1.6,0.2,1.9,0.9c0.3,0.8-0.2,1.6-0.9,1.9l-2.8,0.9C319.7,284.6,319.4,284.6,319.2,284.6z M328.5,281.4
		c-0.5-0.1-0.9-0.5-1.1-1c-0.3-0.8,0.2-1.6,0.9-1.9l2.8-0.9c0.8-0.3,1.6,0.2,1.9,0.9c0.3,0.8-0.2,1.6-0.9,1.9l-2.8,0.9
		C329,281.5,328.7,281.5,328.5,281.4z M337.9,278.3c-0.5-0.1-0.9-0.5-1.1-1c-0.3-0.8,0.2-1.6,0.9-1.9l2.8-0.9c0.8-0.3,1.6,0.2,1.9,1
		s-0.2,1.6-1,1.9l-2.8,0.9C338.4,278.4,338.1,278.4,337.9,278.3z M347.2,275.3c-0.5-0.1-0.9-0.5-1.1-1c-0.2-0.8,0.2-1.6,1-1.9
		l2.8-0.9c0.8-0.2,1.6,0.2,1.9,1c0.2,0.8-0.2,1.6-1,1.9l-2.8,0.9C347.7,275.4,347.5,275.4,347.2,275.3z M356.6,272.4
		c-0.5-0.1-0.9-0.5-1.1-1c-0.2-0.8,0.2-1.6,1-1.8l2.8-0.9c0.8-0.2,1.6,0.2,1.8,1c0.2,0.8-0.2,1.6-1,1.8l-2.8,0.9
		C357.1,272.4,356.9,272.4,356.6,272.4z M366.1,269.5c-0.5-0.1-0.9-0.5-1.1-1c-0.2-0.8,0.2-1.6,1-1.8l2.8-0.9c0.8-0.2,1.6,0.2,1.8,1
		c0.2,0.8-0.2,1.6-1,1.8l-2.8,0.9C366.6,269.6,366.3,269.6,366.1,269.5z M375.5,266.7c-0.5-0.1-0.9-0.5-1.1-1
		c-0.2-0.8,0.2-1.6,1-1.8l2.8-0.8c0.8-0.2,1.6,0.2,1.8,1c0.2,0.8-0.2,1.6-1,1.8l-2.8,0.8C376,266.7,375.7,266.7,375.5,266.7z
		 M385,263.9c-0.5-0.1-1-0.5-1.1-1c-0.2-0.8,0.2-1.6,1-1.8l2.8-0.8c0.8-0.2,1.6,0.2,1.8,1c0.2,0.8-0.2,1.6-1,1.8l-2.8,0.8
		C385.4,264,385.2,264,385,263.9z M394.4,261.2c-0.5-0.1-1-0.5-1.1-1c-0.2-0.8,0.2-1.6,1-1.8l2.8-0.8c0.8-0.2,1.6,0.2,1.8,1
		c0.2,0.8-0.2,1.6-1,1.8l-2.8,0.8C394.9,261.3,394.7,261.3,394.4,261.2z M403.9,258.6c-0.5-0.1-1-0.5-1.1-1.1
		c-0.2-0.8,0.2-1.6,1-1.8l2.9-0.8c0.8-0.2,1.6,0.2,1.8,1c0.2,0.8-0.2,1.6-1,1.8l-2.8,0.8C404.4,258.6,404.2,258.6,403.9,258.6z
		 M413.4,256c-0.5-0.1-1-0.5-1.1-1.1c-0.2-0.8,0.3-1.6,1-1.8l2.9-0.8c0.8-0.2,1.6,0.3,1.8,1c0.2,0.8-0.3,1.6-1,1.8l-2.9,0.8
		C413.9,256,413.7,256,413.4,256z M423,253.5c-0.5-0.1-1-0.5-1.1-1.1c-0.2-0.8,0.3-1.6,1.1-1.8l2.9-0.8c0.8-0.2,1.6,0.3,1.8,1.1
		c0.2,0.8-0.3,1.6-1.1,1.8l-2.9,0.8C423.4,253.5,423.2,253.5,423,253.5z M432.5,251c-0.5-0.1-1-0.5-1.1-1.1
		c-0.2-0.8,0.3-1.6,1.1-1.8l2.9-0.7c0.8-0.2,1.6,0.3,1.8,1.1c0.2,0.8-0.3,1.6-1.1,1.8l-2.9,0.7C433,251,432.7,251,432.5,251z
		 M442.1,248.5c-0.5-0.1-1-0.5-1.1-1.1c-0.2-0.8,0.3-1.6,1.1-1.8l2.9-0.7c0.8-0.2,1.6,0.3,1.8,1.1c0.2,0.8-0.3,1.6-1.1,1.8l-2.9,0.7
		C442.5,248.6,442.3,248.6,442.1,248.5z M451.6,246.2c-0.5-0.1-1-0.5-1.1-1.1c-0.2-0.8,0.3-1.6,1.1-1.8l2.9-0.7
		c0.8-0.2,1.6,0.3,1.8,1.1c0.2,0.8-0.3,1.6-1.1,1.8l-2.9,0.7C452.1,246.2,451.8,246.2,451.6,246.2z M461.2,243.8
		c-0.5-0.1-1-0.5-1.1-1.1c-0.2-0.8,0.3-1.6,1.1-1.8l2.9-0.7c0.8-0.2,1.6,0.3,1.8,1.1c0.2,0.8-0.3,1.6-1.1,1.8l-2.9,0.7
		C461.6,243.9,461.4,243.9,461.2,243.8z M470.8,241.5c-0.5-0.1-1-0.5-1.1-1.1c-0.2-0.8,0.3-1.6,1.1-1.8l2.9-0.7
		c0.8-0.2,1.6,0.3,1.8,1.1c0.2,0.8-0.3,1.6-1.1,1.8l-2.9,0.7C471.2,241.6,471,241.6,470.8,241.5z M480.4,239.3
		c-0.5-0.1-1-0.5-1.1-1.1c-0.2-0.8,0.3-1.6,1.1-1.8l2.9-0.7c0.8-0.2,1.6,0.3,1.8,1.1c0.2,0.8-0.3,1.6-1.1,1.8l-2.9,0.7
		C480.8,239.3,480.6,239.3,480.4,239.3z M490,237.1c-0.5-0.1-1-0.5-1.1-1.1c-0.2-0.8,0.3-1.6,1.1-1.8l2.9-0.7
		c0.8-0.2,1.6,0.3,1.8,1.1c0.2,0.8-0.3,1.6-1.1,1.8l-2.9,0.7C490.4,237.1,490.2,237.1,490,237.1z M499.6,234.9
		c-0.5-0.1-1-0.5-1.1-1.1c-0.2-0.8,0.3-1.6,1.1-1.8l2.9-0.6c0.8-0.2,1.6,0.3,1.8,1.1c0.2,0.8-0.3,1.6-1.1,1.8l-2.9,0.6
		C500,235,499.8,235,499.6,234.9z M509.2,232.8c-0.5-0.1-1-0.5-1.1-1.1c-0.2-0.8,0.3-1.6,1.1-1.8l2.9-0.6c0.8-0.2,1.6,0.3,1.8,1.1
		s-0.3,1.6-1.1,1.8l-2.9,0.6C509.7,232.8,509.4,232.8,509.2,232.8z M518.9,230.7c-0.6-0.1-1-0.5-1.1-1.1c-0.2-0.8,0.3-1.6,1.1-1.8
		l2.9-0.6c0.8-0.2,1.6,0.3,1.8,1.1s-0.3,1.6-1.1,1.8l-2.9,0.6C519.3,230.8,519.1,230.8,518.9,230.7z M528.5,228.7
		c-0.6-0.1-1-0.6-1.1-1.1c-0.2-0.8,0.3-1.6,1.1-1.8l2.9-0.6c0.8-0.2,1.6,0.3,1.7,1.1c0.2,0.8-0.3,1.6-1.1,1.7l-2.9,0.6
		C528.9,228.7,528.7,228.7,528.5,228.7z M538.2,226.7c-0.6-0.1-1-0.6-1.1-1.1c-0.2-0.8,0.3-1.6,1.1-1.7l2.9-0.6
		c0.8-0.2,1.6,0.4,1.7,1.2c0.2,0.8-0.4,1.6-1.2,1.7l-2.9,0.6C538.6,226.7,538.4,226.7,538.2,226.7z M547.8,224.7
		c-0.6-0.1-1-0.6-1.1-1.2c-0.2-0.8,0.4-1.6,1.2-1.7l2.9-0.6c0.8-0.2,1.6,0.4,1.7,1.2c0.2,0.8-0.4,1.6-1.2,1.7l-2.9,0.6
		C548.2,224.7,548,224.7,547.8,224.7z M557.5,222.8c-0.6-0.1-1-0.6-1.1-1.2c-0.2-0.8,0.4-1.6,1.2-1.7l2.9-0.6
		c0.8-0.2,1.6,0.4,1.7,1.2c0.2,0.8-0.4,1.6-1.2,1.7l-2.9,0.6C557.9,222.8,557.7,222.8,557.5,222.8z M567.2,220.8
		c-0.6-0.1-1-0.6-1.1-1.2c-0.2-0.8,0.4-1.6,1.2-1.7l2.9-0.6c0.8-0.2,1.6,0.4,1.7,1.2c0.2,0.8-0.4,1.6-1.2,1.7l-2.9,0.6
		C567.6,220.9,567.4,220.9,567.2,220.8z M576.8,219c-0.6-0.1-1-0.6-1.1-1.2c-0.2-0.8,0.4-1.6,1.2-1.7l2.9-0.6
		c0.8-0.2,1.6,0.4,1.7,1.2c0.2,0.8-0.4,1.6-1.2,1.7l-2.9,0.6C577.2,219,577,219,576.8,219z M586.5,217.1c-0.6-0.1-1-0.6-1.1-1.2
		c-0.2-0.8,0.4-1.6,1.2-1.7l2.9-0.6c0.8-0.2,1.6,0.4,1.7,1.2c0.2,0.8-0.4,1.6-1.2,1.7l-2.9,0.5C586.9,217.2,586.7,217.2,586.5,217.1
		z M596.2,215.3c-0.6-0.1-1-0.6-1.1-1.2c-0.2-0.8,0.4-1.6,1.2-1.7l2.9-0.5c0.8-0.1,1.6,0.4,1.7,1.2c0.1,0.8-0.4,1.6-1.2,1.7
		l-2.9,0.5C596.6,215.3,596.4,215.3,596.2,215.3z M605.9,213.5c-0.6-0.1-1-0.6-1.1-1.2c-0.1-0.8,0.4-1.6,1.2-1.7l2.9-0.5
		c0.8-0.1,1.6,0.4,1.7,1.2c0.1,0.8-0.4,1.6-1.2,1.7l-2.9,0.5C606.3,213.5,606.1,213.5,605.9,213.5z M615.6,211.7
		c-0.6-0.1-1-0.6-1.1-1.2c-0.1-0.8,0.4-1.6,1.2-1.7l2.9-0.5c0.8-0.1,1.6,0.4,1.7,1.2c0.1,0.8-0.4,1.6-1.2,1.7l-2.9,0.5
		C616,211.8,615.8,211.8,615.6,211.7z M625.3,210c-0.6-0.1-1-0.6-1.1-1.2c-0.1-0.8,0.4-1.6,1.2-1.7l2.9-0.5c0.8-0.1,1.6,0.4,1.7,1.2
		c0.1,0.8-0.4,1.6-1.2,1.7l-2.9,0.5C625.7,210,625.5,210,625.3,210z M635,208.2c-0.6-0.1-1-0.6-1.1-1.2c-0.1-0.8,0.4-1.6,1.2-1.7
		l2.9-0.5c0.8-0.1,1.6,0.4,1.7,1.2c0.1,0.8-0.4,1.6-1.2,1.7l-2.9,0.5C635.4,208.3,635.2,208.3,635,208.2z M644.7,206.5
		c-0.6-0.1-1-0.6-1.1-1.2c-0.1-0.8,0.4-1.6,1.2-1.7l2.9-0.5c0.8-0.1,1.6,0.4,1.7,1.2c0.1,0.8-0.4,1.6-1.2,1.7l-2.9,0.5
		C645.1,206.6,644.9,206.5,644.7,206.5z M654.4,204.8c-0.6-0.1-1-0.6-1.1-1.2c-0.1-0.8,0.4-1.6,1.2-1.7l2.9-0.5
		c0.8-0.1,1.6,0.4,1.7,1.2c0.1,0.8-0.4,1.6-1.2,1.7l-2.9,0.5C654.8,204.9,654.6,204.9,654.4,204.8z M664.1,203.1
		c-0.6-0.1-1-0.6-1.1-1.2c-0.1-0.8,0.4-1.6,1.2-1.7l2.9-0.5c0.8-0.1,1.6,0.4,1.7,1.2c0.1,0.8-0.4,1.6-1.2,1.7l-2.9,0.5
		C664.5,203.2,664.3,203.2,664.1,203.1z M673.8,201.5c-0.6-0.1-1-0.6-1.1-1.2c-0.1-0.8,0.4-1.6,1.2-1.7l2.9-0.5
		c0.8-0.1,1.6,0.4,1.7,1.2c0.1,0.8-0.4,1.6-1.2,1.7l-2.9,0.5C674.2,201.5,674,201.5,673.8,201.5z M683.6,199.8
		c-0.6-0.1-1-0.6-1.1-1.2c-0.1-0.8,0.4-1.6,1.2-1.7l2.9-0.5c0.8-0.1,1.6,0.4,1.7,1.2c0.1,0.8-0.4,1.6-1.2,1.7l-2.9,0.5
		C683.9,199.9,683.7,199.9,683.6,199.8z M693.3,198.2c-0.6-0.1-1-0.6-1.1-1.2c-0.1-0.8,0.4-1.6,1.2-1.7l2.9-0.5
		c0.8-0.1,1.6,0.4,1.7,1.2c0.1,0.8-0.4,1.6-1.2,1.7l-2.9,0.5C693.6,198.2,693.4,198.2,693.3,198.2z M703,196.5
		c-0.6-0.1-1-0.6-1.1-1.2c-0.1-0.8,0.4-1.6,1.2-1.7l2.9-0.5c0.8-0.1,1.6,0.4,1.7,1.2c0.1,0.8-0.4,1.6-1.2,1.7l-2.9,0.5
		C703.4,196.6,703.2,196.6,703,196.5z M712.7,194.9c-0.6-0.1-1-0.6-1.1-1.2c-0.1-0.8,0.4-1.6,1.2-1.7l2.9-0.5
		c0.8-0.1,1.6,0.4,1.7,1.2c0.1,0.8-0.4,1.6-1.2,1.7l-2.9,0.5C713.1,195,712.9,195,712.7,194.9z M722.4,193.3c-0.6-0.1-1-0.6-1.1-1.2
		c-0.1-0.8,0.4-1.6,1.2-1.7l2.9-0.5c0.8-0.1,1.6,0.4,1.7,1.2c0.1,0.8-0.4,1.6-1.2,1.7l-2.9,0.5C722.8,193.3,722.6,193.3,722.4,193.3
		z M732.1,191.7c-0.6-0.1-1-0.6-1.1-1.2c-0.1-0.8,0.4-1.6,1.2-1.7l2.9-0.5c0.8-0.1,1.6,0.4,1.7,1.2c0.1,0.8-0.4,1.6-1.2,1.7
		l-2.9,0.5C732.5,191.7,732.3,191.7,732.1,191.7z M741.9,190.1c-0.6-0.1-1-0.6-1.1-1.2c-0.1-0.8,0.4-1.6,1.2-1.7l2.9-0.5
		c0.8-0.1,1.6,0.4,1.7,1.2c0.1,0.8-0.4,1.6-1.2,1.7l-2.9,0.5C742.2,190.1,742,190.1,741.9,190.1z M751.6,188.5
		c-0.6-0.1-1-0.6-1.1-1.2c-0.1-0.8,0.4-1.6,1.2-1.7l2.9-0.5c0.8-0.1,1.6,0.4,1.7,1.2c0.1,0.8-0.4,1.6-1.2,1.7l-2.9,0.5
		C752,188.5,751.8,188.5,751.6,188.5z"/>
</g>
<g>
	<polygon class="st1" points="760.9,171.4 760.6,187.1 771.4,180.5 	"/>
	<path class="st2" d="M832,163.5l-43.2,36.7c-0.8,0.7-1.9,1-3,0.9s-2.1-0.7-2.7-1.5l-35.2-44.8c-0.4-0.5-0.5-1.2-0.1-1.8
		c0.3-0.6,1-0.9,1.6-0.8L832,163.5z"/>
	<polygon class="st1" points="760.9,171.4 832,163.5 766.5,178.6 766.3,183 	"/>
	<polygon class="st1" points="769.9,182.9 760.6,187.1 766.5,178.6 	"/>
</g>
<g>
	<path class="st3" d="M319,171.1l16.1,10.3c1.5,0.9,3.3,1.1,4.9,0.4l17.6-7.4c4.1-1.7,8.3,2,7.2,6.2l-4.9,18.5
		c-0.4,1.7,0,3.5,1.1,4.8l12.5,14.5c2.9,3.3,0.7,8.5-3.7,8.8l-19.1,1.1c-1.7,0.1-3.3,1.1-4.2,2.5l-9.9,16.3
		c-2.3,3.8-7.9,3.3-9.5-0.8l-6.9-17.8c-0.6-1.6-2-2.8-3.7-3.2l-18.6-4.4c-4.3-1-5.6-6.5-2.1-9.3l14.8-12.1c1.4-1.1,2.1-2.8,1.9-4.5
		l-1.6-19.1C310.5,171.6,315.3,168.7,319,171.1z"/>
	
		<linearGradient id="SVGID_1_" gradientUnits="userSpaceOnUse" x1="35.2685" y1="911.8586" x2="-33.6582" y2="807.5851" gradientTransform="matrix(0.8569 -0.5155 -0.5155 -0.8569 776.0597 970.4796)">
		<stop  offset="0" style="stop-color:#FF9130"/>
		<stop  offset="1" style="stop-color:#FFA43A"/>
	</linearGradient>
	<path class="st4" d="M370.6,223.7c-0.3,0.2-0.6,0.3-1,0.3l-19.1,1.1c-1.4,0.1-2.7,0.5-3.9,1.2c-1.2,0.7-2.2,1.7-2.9,2.9l-9.9,16.3
		c-0.2,0.3-0.4,0.6-0.7,0.7c-0.5,0.3-1.2,0.4-1.8,0.2c-0.4-0.1-1-0.5-1.3-1.2l-6.9-17.8c-1-2.6-3.3-4.6-6-5.2l-18.6-4.4
		c-1.1-0.3-1.5-1.2-1.6-1.6c-0.1-0.4-0.2-1.4,0.7-2.1l14.8-12.1c2.2-1.8,3.3-4.5,3.1-7.3l-1.6-19.1c-0.1-1.2,0.7-1.8,1-2
		s1.2-0.6,2.2,0l16.1,10.3c2.4,1.5,5.3,1.8,7.9,0.7l17.6-7.4c1.1-0.5,1.9,0.1,2.2,0.4c0.3,0.3,1,1,0.7,2.1l-4.9,18.5
		c-0.7,2.7,0,5.6,1.8,7.7l12.5,14.5c0.5,0.6,0.6,1.3,0.5,1.7C371.5,222.9,371.1,223.4,370.6,223.7z"/>
	
		<linearGradient id="SVGID_2_" gradientUnits="userSpaceOnUse" x1="925.3419" y1="960.3276" x2="930.5997" y2="887.9327" gradientTransform="matrix(0.6873 -0.7263 -0.7263 -0.6873 281.5546 1472.5267)">
		<stop  offset="0" style="stop-color:#FF928E"/>
		<stop  offset="1" style="stop-color:#FFC688"/>
	</linearGradient>
	<path class="st5" d="M323.2,222.1c-0.2,0.1-0.4,0.1-0.6,0c-1.4-1.2-3-2-4.8-2.5l-7.1-1.7c-0.3-0.1-0.4-0.3-0.4-0.6
		c0.1-0.3,0.3-0.4,0.6-0.4l7.1,1.7c1.9,0.5,3.7,1.4,5.2,2.7c0.2,0.2,0.2,0.5,0,0.7C323.2,222,323.2,222,323.2,222.1z"/>
	
		<linearGradient id="SVGID_3_" gradientUnits="userSpaceOnUse" x1="938.3168" y1="961.2704" x2="943.5746" y2="888.8754" gradientTransform="matrix(0.6873 -0.7263 -0.7263 -0.6873 281.5546 1472.5267)">
		<stop  offset="0" style="stop-color:#FF928E"/>
		<stop  offset="1" style="stop-color:#FFC688"/>
	</linearGradient>
	<path class="st6" d="M340,230.1c-0.1,0.1-0.3,0.1-0.5,0s-0.3-0.4-0.2-0.7l1.3-2.2c1-1.7,2.5-3.1,4.1-4.1c1.7-1,3.6-1.6,5.6-1.7
		c0.3,0,0.5,0.2,0.5,0.5s-0.2,0.5-0.5,0.5c-1.8,0.1-3.6,0.7-5.1,1.6c-1.6,0.9-2.9,2.3-3.8,3.8l-1.3,2.2
		C340.1,230,340,230.1,340,230.1z"/>
	
		<linearGradient id="SVGID_4_" gradientUnits="userSpaceOnUse" x1="950.1206" y1="962.1273" x2="955.3784" y2="889.7324" gradientTransform="matrix(0.6873 -0.7263 -0.7263 -0.6873 281.5546 1472.5267)">
		<stop  offset="0" style="stop-color:#FF928E"/>
		<stop  offset="1" style="stop-color:#FFC688"/>
	</linearGradient>
	<path class="st7" d="M362.1,221.3c-0.3,0.2-0.7,0.3-1.1,0.4c-0.3,0.1-0.5-0.1-0.6-0.3c-0.1-0.3,0.1-0.5,0.3-0.6c1-0.2,1.8-1,2.1-2
		c0.3-1,0.1-2-0.6-2.8l-6.5-7.5c-2.6-3-3.6-7.2-2.6-11.1l2.5-9.6c0.3-1.1-0.1-2.2-0.9-3c-0.9-0.8-2-0.9-3.1-0.5l-9.1,3.8
		c-3.7,1.6-7.9,1.2-11.3-1l-8.3-5.4c-1-0.6-2.1-0.6-3.1,0s-1.5,1.6-1.4,2.8l0.8,9.9c0.3,4-1.3,7.9-4.4,10.5l-7.7,6.3
		c-0.5,0.4-0.8,0.9-1,1.4c-0.1,0.3-0.3,0.4-0.6,0.3c-0.3-0.1-0.4-0.3-0.3-0.6c0.2-0.7,0.7-1.4,1.3-1.9l7.7-6.3
		c2.9-2.3,4.4-5.9,4.1-9.6l-0.8-9.9c-0.1-1.5,0.6-2.9,1.9-3.7s2.9-0.8,4.1,0.1l8.3,5.4c3.1,2,7,2.3,10.4,0.9l9.1-3.8
		c1.4-0.6,3-0.3,4.1,0.7s1.6,2.5,1.2,4l-2.5,9.6c-0.9,3.6-0.1,7.4,2.4,10.2l6.5,7.5c0.9,1,1.2,2.4,0.8,3.7
		C363.5,220,362.9,220.8,362.1,221.3z"/>
</g>
<g>
	<path class="st3" d="M795.2,275.8l16.1,10.3c1.5,0.9,3.3,1.1,4.9,0.4l17.6-7.4c4.1-1.7,8.3,2,7.2,6.2l-4.9,18.5
		c-0.4,1.7,0,3.5,1.1,4.8l12.5,14.5c2.9,3.3,0.7,8.5-3.7,8.8l-19.1,1.1c-1.7,0.1-3.3,1.1-4.2,2.5l-9.9,16.3
		c-2.3,3.8-7.9,3.3-9.5-0.8l-6.9-17.8c-0.6-1.6-2-2.8-3.7-3.2l-18.6-4.4c-4.3-1-5.6-6.5-2.1-9.3l14.8-12.1c1.4-1.1,2.1-2.8,1.9-4.5
		l-1.6-19.1C786.6,276.3,791.5,273.4,795.2,275.8z"/>
	
		<linearGradient id="SVGID_5_" gradientUnits="userSpaceOnUse" x1="389.4044" y1="576.6614" x2="320.4778" y2="472.3879" gradientTransform="matrix(0.8569 -0.5155 -0.5155 -0.8569 776.0597 970.4796)">
		<stop  offset="0" style="stop-color:#FF9130"/>
		<stop  offset="1" style="stop-color:#FFA43A"/>
	</linearGradient>
	<path class="st8" d="M846.8,328.4c-0.3,0.2-0.6,0.3-1,0.3l-19.1,1.1c-1.4,0.1-2.7,0.5-3.9,1.2s-2.2,1.7-2.9,2.9l-9.9,16.3
		c-0.2,0.3-0.4,0.6-0.7,0.7c-0.5,0.3-1.2,0.4-1.8,0.2c-0.4-0.1-1-0.5-1.3-1.2l-6.9-17.8c-1-2.6-3.3-4.6-6-5.2l-18.6-4.4
		c-1.1-0.3-1.5-1.2-1.6-1.6s-0.2-1.4,0.7-2.1l14.8-12.1c2.2-1.8,3.3-4.5,3.1-7.3l-1.6-19.1c-0.1-1.2,0.7-1.8,1-2s1.2-0.6,2.2,0
		l16.1,10.3c2.4,1.5,5.3,1.8,7.9,0.7l17.6-7.4c1.1-0.5,1.9,0.1,2.2,0.4s1,1,0.7,2.1L833,303c-0.7,2.7,0,5.6,1.8,7.7l12.5,14.5
		c0.5,0.6,0.6,1.3,0.5,1.7C847.7,327.5,847.3,328.1,846.8,328.4z"/>
	
		<linearGradient id="SVGID_6_" gradientUnits="userSpaceOnUse" x1="1176.6278" y1="542.5137" x2="1181.8855" y2="470.1186" gradientTransform="matrix(0.6873 -0.7263 -0.7263 -0.6873 281.5546 1472.5267)">
		<stop  offset="0" style="stop-color:#FF928E"/>
		<stop  offset="1" style="stop-color:#FFC688"/>
	</linearGradient>
	<path class="st9" d="M799.3,326.7c-0.2,0.1-0.4,0.1-0.6,0c-1.4-1.2-3-2-4.8-2.5l-7.1-1.7c-0.3-0.1-0.4-0.3-0.4-0.6
		c0.1-0.3,0.3-0.4,0.6-0.4l7.1,1.7c1.9,0.5,3.7,1.4,5.2,2.7C799.5,326.1,799.5,326.4,799.3,326.7
		C799.4,326.7,799.4,326.7,799.3,326.7z"/>
	
		<linearGradient id="SVGID_7_" gradientUnits="userSpaceOnUse" x1="1189.5253" y1="543.4509" x2="1194.7831" y2="471.0558" gradientTransform="matrix(0.6873 -0.7263 -0.7263 -0.6873 281.5546 1472.5267)">
		<stop  offset="0" style="stop-color:#FF928E"/>
		<stop  offset="1" style="stop-color:#FFC688"/>
	</linearGradient>
	<path class="st10" d="M816.1,334.8c-0.1,0.1-0.3,0.1-0.5,0s-0.3-0.4-0.2-0.7l1.3-2.2c1-1.7,2.5-3.1,4.1-4.1c1.7-1,3.6-1.6,5.6-1.7
		c0.3,0,0.5,0.2,0.5,0.5s-0.2,0.5-0.5,0.5c-1.8,0.1-3.6,0.7-5.1,1.6c-1.6,0.9-2.9,2.3-3.8,3.8l-1.3,2.2
		C816.2,334.7,816.2,334.8,816.1,334.8z"/>
	
		<linearGradient id="SVGID_8_" gradientUnits="userSpaceOnUse" x1="1201.392" y1="544.3123" x2="1206.6499" y2="471.9174" gradientTransform="matrix(0.6873 -0.7263 -0.7263 -0.6873 281.5546 1472.5267)">
		<stop  offset="0" style="stop-color:#FF928E"/>
		<stop  offset="1" style="stop-color:#FFC688"/>
	</linearGradient>
	<path class="st11" d="M838.3,326c-0.3,0.2-0.7,0.3-1.1,0.4c-0.3,0.1-0.5-0.1-0.6-0.3c-0.1-0.3,0.1-0.5,0.3-0.6c1-0.2,1.8-1,2.1-2
		s0.1-2-0.6-2.8l-6.5-7.5c-2.6-3-3.6-7.2-2.6-11.1l2.5-9.6c0.3-1.1-0.1-2.2-0.9-3c-0.9-0.8-2-0.9-3.1-0.5l-9.1,3.8
		c-3.7,1.6-7.9,1.2-11.3-1l-8.3-5.4c-1-0.6-2.1-0.6-3.1,0s-1.5,1.6-1.4,2.8l0.8,9.9c0.3,4-1.3,7.9-4.4,10.5l-7.7,6.3
		c-0.5,0.4-0.8,0.9-1,1.4c-0.1,0.3-0.3,0.4-0.6,0.3s-0.4-0.3-0.3-0.6c0.2-0.7,0.7-1.4,1.3-1.9l7.7-6.3c2.9-2.3,4.4-5.9,4.1-9.6
		l-0.8-9.9c-0.1-1.5,0.6-2.9,1.9-3.7s2.9-0.8,4.1,0.1l8.3,5.4c3.1,2,7,2.3,10.4,0.9l9.1-3.8c1.4-0.6,3-0.3,4.1,0.7s1.6,2.5,1.2,4
		l-2.5,9.6c-0.9,3.6-0.1,7.4,2.4,10.2l6.5,7.5c0.9,1,1.2,2.4,0.8,3.7C839.7,324.7,839.1,325.5,838.3,326z"/>
</g>
<g>
	<path class="st3" d="M958.5,410.9l2.4,15c0.2,1.4,1.1,2.5,2.4,3.1l13.7,6.5c3.2,1.5,3.2,6,0.1,7.6l-13.5,6.9
		c-1.2,0.6-2.1,1.8-2.3,3.2l-1.9,15.1c-0.4,3.5-4.7,4.9-7.2,2.5l-10.8-10.7c-1-1-2.4-1.4-3.7-1.2l-14.9,2.8c-3.4,0.6-6.1-2.9-4.5-6
		l6.8-13.5c0.6-1.2,0.6-2.7-0.1-3.9l-7.3-13.3c-1.7-3.1,0.9-6.7,4.3-6.2l15,2.3c1.4,0.2,2.8-0.3,3.7-1.3l10.4-11
		C953.7,406.2,957.9,407.5,958.5,410.9z"/>
	
		<linearGradient id="SVGID_9_" gradientUnits="userSpaceOnUse" x1="117.8" y1="64.162" x2="63.0712" y2="-18.6328" gradientTransform="matrix(0.9559 0.2938 0.2938 -0.9559 836.3121 447.8207)">
		<stop  offset="0" style="stop-color:#FF9130"/>
		<stop  offset="1" style="stop-color:#FFA43A"/>
	</linearGradient>
	<path class="st12" d="M954.7,469.4c-0.3-0.1-0.5-0.2-0.7-0.4l-10.8-10.7c-0.8-0.8-1.7-1.3-2.8-1.7c-1-0.3-2.2-0.4-3.2-0.2
		l-14.9,2.8c-0.3,0.1-0.6,0-0.8,0c-0.5-0.1-0.9-0.5-1.1-1c-0.1-0.3-0.2-0.8,0.1-1.4l6.8-13.5c1-2,1-4.3-0.1-6.3l-7.3-13.3
		c-0.4-0.8-0.1-1.5,0.1-1.8c0.2-0.3,0.7-0.8,1.6-0.7l15,2.3c2.2,0.3,4.4-0.4,6-2l10.4-11c0.6-0.7,1.4-0.5,1.7-0.4s1,0.4,1.2,1.3
		l2.4,15c0.4,2.2,1.8,4.1,3.8,5l13.7,6.5c0.8,0.4,0.9,1.2,1,1.5c0,0.3-0.1,1.1-0.9,1.5l-13.5,6.9c-2,1-3.3,2.9-3.6,5.1l-1.9,15.1
		c-0.1,0.6-0.4,1-0.7,1.2C955.7,469.4,955.2,469.5,954.7,469.4z"/>
	
		<linearGradient id="SVGID_10_" gradientUnits="userSpaceOnUse" x1="789.4422" y1="99.8535" x2="793.617" y2="42.3706" gradientTransform="matrix(0.9996 2.680708e-02 2.680708e-02 -0.9996 132.3969 414.8289)">
		<stop  offset="0" style="stop-color:#FF928E"/>
		<stop  offset="1" style="stop-color:#FFC688"/>
	</linearGradient>
	<path class="st13" d="M930.6,440.4c-0.2,0-0.3-0.2-0.3-0.4c0-1.4-0.4-2.9-1.1-4.1l-2.8-5.1c-0.1-0.2,0-0.4,0.2-0.5s0.4,0,0.5,0.2
		l2.8,5.1c0.8,1.4,1.2,2.9,1.2,4.5c0,0.2-0.2,0.4-0.4,0.4C930.6,440.5,930.6,440.4,930.6,440.4z"/>
	
		<linearGradient id="SVGID_11_" gradientUnits="userSpaceOnUse" x1="799.662" y1="100.5959" x2="803.8369" y2="43.1132" gradientTransform="matrix(0.9996 2.680708e-02 2.680708e-02 -0.9996 132.3969 414.8289)">
		<stop  offset="0" style="stop-color:#FF928E"/>
		<stop  offset="1" style="stop-color:#FFC688"/>
	</linearGradient>
	<path class="st14" d="M934.7,454.6c-0.1,0-0.2-0.2-0.3-0.3c0-0.2,0.1-0.4,0.3-0.4l2-0.4c1.5-0.3,3.1-0.2,4.6,0.3s2.9,1.3,4,2.4
		c0.1,0.1,0.2,0.4,0,0.5c-0.1,0.1-0.4,0.2-0.5,0c-1-1-2.3-1.8-3.7-2.2c-1.4-0.4-2.9-0.5-4.3-0.2L934.7,454.6
		C934.8,454.7,934.7,454.7,934.7,454.6z"/>
	
		<linearGradient id="SVGID_12_" gradientUnits="userSpaceOnUse" x1="809.5101" y1="101.3109" x2="813.6848" y2="43.8283" gradientTransform="matrix(0.9996 2.680708e-02 2.680708e-02 -0.9996 132.3969 414.8289)">
		<stop  offset="0" style="stop-color:#FF928E"/>
		<stop  offset="1" style="stop-color:#FFC688"/>
	</linearGradient>
	<path class="st15" d="M951.7,463c-0.3-0.1-0.6-0.2-0.8-0.4c-0.2-0.1-0.2-0.4-0.1-0.5c0.1-0.2,0.4-0.2,0.5-0.1
		c0.7,0.5,1.5,0.5,2.3,0.2s1.3-1,1.4-1.8l1-7.8c0.4-3.2,2.3-5.9,5.2-7.4l7-3.6c0.8-0.4,1.3-1.2,1.3-2.1s-0.5-1.7-1.3-2.1l-7.1-3.4
		c-2.9-1.4-4.9-4.1-5.4-7.2l-1.3-7.8c-0.1-0.9-0.8-1.6-1.6-1.9c-0.9-0.3-1.8,0-2.4,0.6l-5.4,5.7c-2.2,2.3-5.4,3.4-8.5,2.9l-7.8-1.2
		c-0.5-0.1-0.9,0-1.3,0.2c-0.2,0.1-0.4,0-0.5-0.2s0-0.4,0.2-0.5c0.5-0.3,1.2-0.3,1.8-0.2l7.8,1.2c2.9,0.5,5.8-0.6,7.9-2.7l5.4-5.7
		c0.8-0.9,2-1.2,3.2-0.8c1.1,0.4,2,1.3,2.2,2.5l1.3,7.8c0.5,2.9,2.3,5.4,5,6.6l7.1,3.4c1.1,0.5,1.8,1.6,1.8,2.8
		c0,1.2-0.6,2.3-1.7,2.8l-7,3.6c-2.6,1.3-4.4,3.9-4.8,6.8l-1,7.8c-0.1,1.1-0.8,2-1.8,2.4C953.2,463.2,952.4,463.3,951.7,463z"/>
</g>
<g>
	<path class="st3" d="M81.9,350.9l2.4,15c0.2,1.4,1.1,2.5,2.4,3.1l13.7,6.5c3.2,1.5,3.2,6,0.1,7.6L87,390c-1.2,0.6-2.1,1.8-2.3,3.2
		l-1.9,15.1c-0.4,3.5-4.7,4.9-7.2,2.5L64.9,400c-1-1-2.4-1.4-3.7-1.2l-14.9,2.8c-3.4,0.6-6.1-2.9-4.5-6l6.8-13.5
		c0.6-1.2,0.6-2.7-0.1-3.9l-7.3-13.3c-1.7-3.1,0.9-6.7,4.3-6.2l15,2.3c1.4,0.2,2.8-0.3,3.7-1.3l10.4-11
		C77.1,346.1,81.3,347.5,81.9,350.9z"/>
	
		<linearGradient id="SVGID_13_" gradientUnits="userSpaceOnUse" x1="-737.7601" y1="-136.0134" x2="-792.4888" y2="-218.8081" gradientTransform="matrix(0.9559 0.2938 0.2938 -0.9559 836.3121 447.8207)">
		<stop  offset="0" style="stop-color:#FF9130"/>
		<stop  offset="1" style="stop-color:#FFA43A"/>
	</linearGradient>
	<path class="st16" d="M78.1,409.3c-0.3-0.1-0.5-0.2-0.7-0.4l-10.8-10.7c-0.8-0.8-1.7-1.3-2.8-1.7c-1-0.3-2.2-0.4-3.2-0.2l-14.9,2.8
		c-0.3,0.1-0.6,0-0.8,0c-0.5-0.1-0.9-0.5-1.1-1c-0.1-0.3-0.2-0.8,0.1-1.4l6.8-13.5c1-2,1-4.3-0.1-6.3l-7.3-13.3
		c-0.4-0.8-0.1-1.5,0.1-1.8c0.2-0.3,0.7-0.8,1.6-0.7l15,2.3c2.2,0.3,4.4-0.4,6-2l10.4-11c0.6-0.7,1.4-0.5,1.7-0.4
		c0.3,0.1,1,0.4,1.2,1.3l2.4,15c0.4,2.2,1.8,4.1,3.8,5l13.7,6.5c0.8,0.4,0.9,1.2,1,1.5c0,0.3-0.1,1.1-0.9,1.5l-13.5,6.9
		c-2,1-3.3,2.9-3.6,5.1L80.3,408c-0.1,0.6-0.4,1-0.7,1.2C79.1,409.4,78.6,409.5,78.1,409.3z"/>
	
		<linearGradient id="SVGID_14_" gradientUnits="userSpaceOnUse" x1="-88.4885" y1="136.3579" x2="-84.3138" y2="78.8751" gradientTransform="matrix(0.9996 2.680708e-02 2.680708e-02 -0.9996 132.3969 414.8289)">
		<stop  offset="0" style="stop-color:#FF928E"/>
		<stop  offset="1" style="stop-color:#FFC688"/>
	</linearGradient>
	<path class="st17" d="M54,380.4c-0.2,0-0.3-0.2-0.3-0.4c0-1.4-0.4-2.9-1.1-4.1l-2.8-5.1c-0.1-0.2,0-0.4,0.2-0.5s0.4,0,0.5,0.2
		l2.8,5.1c0.8,1.4,1.2,2.9,1.2,4.5c0,0.2-0.2,0.4-0.4,0.4C54,380.4,54,380.4,54,380.4z"/>
	
		<linearGradient id="SVGID_15_" gradientUnits="userSpaceOnUse" x1="-78.2686" y1="137.1005" x2="-74.0939" y2="79.6177" gradientTransform="matrix(0.9996 2.680708e-02 2.680708e-02 -0.9996 132.3969 414.8289)">
		<stop  offset="0" style="stop-color:#FF928E"/>
		<stop  offset="1" style="stop-color:#FFC688"/>
	</linearGradient>
	<path class="st18" d="M58.1,394.6c-0.1,0-0.2-0.2-0.3-0.3c0-0.2,0.1-0.4,0.3-0.4l2-0.4c1.5-0.3,3.1-0.2,4.6,0.3s2.9,1.3,4,2.4
		c0.1,0.1,0.2,0.4,0,0.5c-0.1,0.1-0.4,0.2-0.5,0c-1-1-2.3-1.8-3.7-2.2c-1.4-0.4-2.9-0.5-4.3-0.2l-2,0.4
		C58.2,394.6,58.1,394.6,58.1,394.6z"/>
	
		<linearGradient id="SVGID_16_" gradientUnits="userSpaceOnUse" x1="-68.4209" y1="137.8153" x2="-64.2462" y2="80.3327" gradientTransform="matrix(0.9996 2.680708e-02 2.680708e-02 -0.9996 132.3969 414.8289)">
		<stop  offset="0" style="stop-color:#FF928E"/>
		<stop  offset="1" style="stop-color:#FFC688"/>
	</linearGradient>
	<path class="st19" d="M75.1,403c-0.3-0.1-0.6-0.2-0.8-0.4c-0.2-0.1-0.2-0.4-0.1-0.5c0.1-0.2,0.4-0.2,0.5-0.1
		c0.7,0.5,1.5,0.5,2.3,0.2s1.3-1,1.4-1.8l1-7.8c0.4-3.2,2.3-5.9,5.2-7.4l7-3.6c0.8-0.4,1.3-1.2,1.3-2.1s-0.5-1.7-1.3-2.1l-7.1-3.4
		c-2.9-1.4-4.9-4.1-5.4-7.2l-1.3-7.8c-0.1-0.9-0.8-1.6-1.6-1.9c-0.9-0.3-1.8,0-2.4,0.6l-5.4,5.7c-2.2,2.3-5.4,3.4-8.5,2.9l-7.8-1.2
		c-0.5-0.1-0.9,0-1.3,0.2c-0.2,0.1-0.4,0-0.5-0.2s0-0.4,0.2-0.5c0.5-0.3,1.2-0.3,1.8-0.2l7.8,1.2c2.9,0.5,5.8-0.6,7.9-2.7l5.4-5.7
		c0.8-0.9,2-1.2,3.2-0.8c1.1,0.4,2,1.3,2.2,2.5l1.3,7.8c0.5,2.9,2.3,5.4,5,6.6l7.1,3.4c1.1,0.5,1.8,1.6,1.8,2.8
		c0,1.2-0.6,2.3-1.7,2.8l-7,3.6c-2.6,1.3-4.4,3.9-4.8,6.8l-1,7.8c-0.1,1.1-0.8,2-1.8,2.4C76.5,403.2,75.8,403.2,75.1,403z"/>
</g>
<g>
	<path class="st3" d="M145.9,58.3l5.2,32.5c0.5,3,2.4,5.5,5.1,6.8l29.7,14.1c6.8,3.2,7,12.9,0.3,16.4l-29.3,15c-2.7,1.4-4.5,4-4.9,7
		l-4.2,32.6c-1,7.5-10.1,10.6-15.5,5.3L109,164.8c-2.1-2.1-5.2-3.1-8.1-2.5l-32.3,6.1c-7.4,1.4-13.3-6.3-9.8-13.1l14.8-29.4
		c1.4-2.7,1.3-5.9-0.1-8.5L57.7,88.5c-3.6-6.6,1.9-14.6,9.4-13.4l32.5,5c3,0.5,6-0.6,8-2.8l22.6-23.9
		C135.4,48,144.7,50.8,145.9,58.3z"/>
	
		<linearGradient id="SVGID_17_" gradientUnits="userSpaceOnUse" x1="-748.6837" y1="154.2871" x2="-867.2902" y2="-25.1432" gradientTransform="matrix(0.9559 0.2938 0.2938 -0.9559 836.3121 447.8207)">
		<stop  offset="0" style="stop-color:#FF9130"/>
		<stop  offset="1" style="stop-color:#FFA43A"/>
	</linearGradient>
	<path class="st20" d="M137.8,185c-0.5-0.2-1-0.5-1.5-0.9L113,160.9c-1.7-1.7-3.8-2.9-6-3.6c-2.3-0.7-4.7-0.8-7-0.4L67.7,163
		c-0.6,0.1-1.2,0.1-1.7-0.1c-1-0.3-1.9-1.1-2.3-2.1c-0.3-0.7-0.5-1.8,0.1-3l14.8-29.4c2.2-4.3,2.1-9.4-0.2-13.6L62.5,85.9
		c-1-1.8-0.2-3.3,0.2-3.8c0.4-0.6,1.5-1.8,3.5-1.5l32.5,5c4.8,0.7,9.6-0.9,12.9-4.4l22.6-23.9c1.4-1.5,3-1.2,3.7-1
		c0.6,0.2,2.2,0.9,2.5,2.9l5.2,32.5c0.8,4.8,3.8,8.8,8.2,10.9l29.7,14.1c1.8,0.9,2.1,2.5,2.1,3.2s-0.2,2.3-2,3.3l-29.3,15
		c-4.3,2.2-7.2,6.4-7.8,11.2l-4.2,32.6c-0.2,1.4-1,2.2-1.6,2.6C139.9,185.1,138.8,185.3,137.8,185z"/>
	
		<linearGradient id="SVGID_18_" gradientUnits="userSpaceOnUse" x1="-74.7498" y1="516.6595" x2="-65.7023" y2="392.0846" gradientTransform="matrix(0.9996 2.680708e-02 2.680708e-02 -0.9996 132.3969 414.8289)">
		<stop  offset="0" style="stop-color:#FF928E"/>
		<stop  offset="1" style="stop-color:#FFC688"/>
	</linearGradient>
	<path class="st21" d="M85.4,122.3c-0.3-0.1-0.6-0.4-0.6-0.8c-0.1-3.1-0.9-6.2-2.4-9l-6-11c-0.2-0.4-0.1-0.9,0.3-1.1
		s0.9-0.1,1.1,0.3l6,11c1.6,3,2.5,6.3,2.6,9.7c0,0.5-0.4,0.8-0.8,0.8C85.5,122.3,85.4,122.3,85.4,122.3z"/>
	
		<linearGradient id="SVGID_19_" gradientUnits="userSpaceOnUse" x1="-52.5608" y1="518.2718" x2="-43.5134" y2="393.6967" gradientTransform="matrix(0.9996 2.680708e-02 2.680708e-02 -0.9996 132.3969 414.8289)">
		<stop  offset="0" style="stop-color:#FF928E"/>
		<stop  offset="1" style="stop-color:#FFC688"/>
	</linearGradient>
	<path class="st22" d="M94.3,153c-0.3-0.1-0.5-0.3-0.6-0.6c-0.1-0.4,0.2-0.9,0.7-1l4.3-0.8c3.3-0.6,6.8-0.4,10,0.6s6.2,2.8,8.6,5.2
		c0.3,0.3,0.3,0.8,0,1.2c-0.3,0.3-0.8,0.3-1.2,0c-2.2-2.2-5-3.9-8-4.8c-3-0.9-6.2-1.1-9.3-0.5l-4.3,0.8
		C94.6,153.1,94.4,153.1,94.3,153z"/>
	
		<linearGradient id="SVGID_20_" gradientUnits="userSpaceOnUse" x1="-31.8896" y1="519.7723" x2="-22.8421" y2="395.1976" gradientTransform="matrix(0.9996 2.680708e-02 2.680708e-02 -0.9996 132.3969 414.8289)">
		<stop  offset="0" style="stop-color:#FF928E"/>
		<stop  offset="1" style="stop-color:#FFC688"/>
	</linearGradient>
	<path class="st23" d="M131.1,171.2c-0.6-0.2-1.2-0.5-1.8-0.8c-0.4-0.3-0.5-0.8-0.2-1.1c0.3-0.4,0.8-0.5,1.1-0.2
		c1.5,1,3.3,1.1,4.9,0.4c1.6-0.7,2.7-2.2,2.9-4l2.2-16.9c0.9-6.9,5.1-12.8,11.2-16l15.2-7.8c1.8-0.9,2.8-2.6,2.8-4.6
		s-1.1-3.7-2.9-4.5l-15.4-7.3c-6.2-3-10.6-8.8-11.7-15.6L136.7,76c-0.3-2-1.6-3.5-3.5-4.1s-3.8-0.1-5.2,1.4l-11.7,12.4
		c-4.7,5-11.7,7.4-18.5,6.3L81,89.3c-1-0.2-2,0-2.9,0.4c-0.4,0.2-0.9,0-1.1-0.4s0-0.9,0.4-1.1c1.2-0.5,2.5-0.7,3.8-0.5L98,90.3
		c6.3,1,12.7-1.2,17-5.8L126.8,72c1.8-1.9,4.4-2.6,6.9-1.8c2.5,0.8,4.3,2.8,4.7,5.4l2.7,16.8c1,6.3,5.1,11.7,10.8,14.4l15.4,7.3
		c2.3,1.1,3.8,3.4,3.9,6c0,2.6-1.4,4.9-3.7,6.1l-15.2,7.8c-5.7,2.9-9.5,8.4-10.3,14.7l-2.2,16.9c-0.3,2.3-1.8,4.3-3.9,5.3
		C134.3,171.6,132.7,171.7,131.1,171.2z"/>
</g>
</svg>
