<?xml version="1.0" encoding="utf-8"?>
<!-- Generator: Adobe Illustrator 24.1.2, SVG Export Plug-In . SVG Version: 6.00 Build 0)  -->
<svg version="1.1" id="Layer_1" xmlns="http://www.w3.org/2000/svg" xmlns:xlink="http://www.w3.org/1999/xlink" x="0px" y="0px"
	 viewBox="0 0 147 77" style="enable-background:new 0 0 147 77;" xml:space="preserve">
<style type="text/css">
	.st0{display:none;}
	.st1{display:inline;fill:#86C65E;}
	.st2{display:inline;fill:#A5F272;}
	.st3{display:inline;}
	.st4{fill:#FFFFFF;}
	.st5{fill:#69AC3F;}
	.st6{fill:#81D24C;}
	.st7{fill:#5E9B39;}
</style>
<g id="Layer_1_1_" class="st0">
	<polygon class="st1" points="145.1,76.3 0.9,76.3 19.3,57.2 126.7,57.2 	"/>
	<rect x="0.9" y="-3.1" class="st2" width="144.3" height="79.4"/>
	<g class="st3">
		<path class="st4" d="M77.9,54.5v21.8h-4.6V58.8h-0.1l-5,3.1v-4.1l5.4-3.4h4.3V54.5z"/>
	</g>
</g>
<g id="Layer_2_1_">
	<g>
		<g>
			<polygon class="st5" points="0.9,19.9 129.1,19.9 146.7,0.8 29.3,0.8 			"/>
			<rect x="0.9" y="19.8" class="st6" width="128.2" height="56.4"/>
			<polygon class="st7" points="146.7,0.8 146.7,51.6 129.1,76.3 129.1,19.9 			"/>
		</g>
		<g>
			<path class="st4" d="M57.3,59.1v-3.3l7.8-7.2c0.7-0.6,1.2-1.2,1.7-1.7s0.8-1,1-1.5s0.4-1,0.4-1.6s-0.1-1.2-0.4-1.7
				s-0.7-0.8-1.2-1.1s-1.1-0.4-1.7-0.4c-0.7,0-1.3,0.1-1.7,0.4c-0.5,0.3-0.9,0.7-1.2,1.2s-0.4,1.1-0.4,1.8h-4.4c0-1.4,0.3-2.7,1-3.7
				c0.6-1.1,1.6-1.9,2.7-2.4s2.5-0.9,4-0.9c1.6,0,2.9,0.3,4.1,0.8c1.2,0.6,2.1,1.3,2.7,2.3s1,2.1,1,3.3c0,0.8-0.2,1.6-0.5,2.4
				s-0.9,1.7-1.7,2.7s-2,2.1-3.5,3.5l-3.2,3.1v0.1H73V59H57.3V59.1z"/>
		</g>
	</g>
</g>
</svg>
