<?xml version="1.0" encoding="utf-8"?>
<!-- Generator: Adobe Illustrator 24.1.2, SVG Export Plug-In . SVG Version: 6.00 Build 0)  -->
<svg version="1.1" id="Layer_1" xmlns="http://www.w3.org/2000/svg" xmlns:xlink="http://www.w3.org/1999/xlink" x="0px" y="0px"
	 viewBox="0 0 147 57" style="enable-background:new 0 0 147 57;" xml:space="preserve">
<style type="text/css">
	.st0{display:none;}
	.st1{display:inline;fill:#86C65E;}
	.st2{display:inline;fill:#A5F272;}
	.st3{display:inline;}
	.st4{fill:#FFFFFF;}
	.st5{fill:#86C65E;}
	.st6{fill:#A5F272;}
	.st7{fill:#78B255;}
	.st8{fill:#69AC3F;}
	.st9{fill:#81D24C;}
	.st10{fill:#5E9B39;}
</style>
<g id="Layer_1_1_" class="st0">
	<polygon class="st1" points="145.1,56.3 0.9,56.3 19.3,37.2 126.7,37.2 	"/>
	<rect x="0.9" y="-23.1" class="st2" width="144.3" height="79.4"/>
	<g class="st3">
		<path class="st4" d="M77.9,34.5v21.8h-4.6V38.8h-0.1l-5,3.1v-4.1l5.4-3.4h4.3V34.5z"/>
	</g>
</g>
<g id="Layer_2_1_" class="st0">
	<g class="st3">
		<g>
			<polygon class="st5" points="0.9,-0.1 129.1,-0.1 146.7,-19.2 29.3,-19.2 			"/>
			<rect x="0.9" y="-0.2" class="st6" width="128.2" height="56.4"/>
			<polygon class="st7" points="146.7,-19.2 146.7,31.6 129.1,56.3 129.1,-0.1 			"/>
		</g>
		<g>
			<path class="st4" d="M57.3,39.1v-3.3l7.8-7.2c0.7-0.6,1.2-1.2,1.7-1.7s0.8-1,1-1.5s0.4-1,0.4-1.6s-0.1-1.2-0.4-1.7
				s-0.7-0.8-1.2-1.1c-0.5-0.3-1.1-0.4-1.7-0.4c-0.7,0-1.3,0.1-1.7,0.4c-0.5,0.3-0.9,0.7-1.2,1.2s-0.4,1.1-0.4,1.8h-4.4
				c0-1.4,0.3-2.7,1-3.7c0.6-1.1,1.6-1.9,2.7-2.4s2.5-0.9,4-0.9c1.6,0,2.9,0.3,4.1,0.8c1.2,0.6,2.1,1.3,2.7,2.3s1,2.1,1,3.3
				c0,0.8-0.2,1.6-0.5,2.4s-0.9,1.7-1.7,2.7s-2,2.1-3.5,3.5l-3.2,3.1v0.1H73V39H57.3V39.1z"/>
		</g>
	</g>
</g>
<g id="Layer_3">
	<g>
		<g>
			<polygon class="st8" points="146.7,19.9 18.5,19.9 0.9,0.9 118.3,0.9 			"/>
			<rect x="18.5" y="19.9" class="st9" width="128.2" height="36.4"/>
			<polygon class="st10" points="0.9,0.9 0.9,31.6 18.5,56.3 18.5,19.9 			"/>
		</g>
		<g>
			<path class="st4" d="M82.5,49.3c-1.6,0-3-0.3-4.2-0.8c-1.2-0.6-2.2-1.3-2.9-2.3c-0.7-1-1.1-2.1-1.1-3.4h4.6c0,0.5,0.2,1,0.5,1.4
				s0.8,0.7,1.3,0.9s1.1,0.3,1.8,0.3c0.7,0,1.3-0.1,1.9-0.4c0.5-0.2,1-0.6,1.3-1s0.5-0.9,0.5-1.5S86,41.4,85.7,41s-0.8-0.8-1.4-1.1
				s-1.3-0.4-2.1-0.4h-2v-3.4h2c0.7,0,1.3-0.1,1.8-0.4c0.5-0.2,1-0.6,1.3-1s0.4-0.9,0.4-1.5c0-0.5-0.1-1-0.4-1.4s-0.6-0.7-1.1-1
				c-0.5-0.2-1-0.4-1.6-0.4s-1.2,0.1-1.7,0.3c-0.5,0.2-0.9,0.5-1.2,1c-0.3,0.4-0.5,0.9-0.5,1.4h-4.4c0-1.3,0.4-2.4,1.1-3.3
				c0.7-1,1.6-1.7,2.8-2.3c1.2-0.5,2.5-0.8,4-0.8s2.8,0.3,4,0.8c1.1,0.5,2,1.3,2.6,2.2c0.6,0.9,0.9,2,0.9,3.1c0,1.2-0.4,2.2-1.1,3.1
				c-0.8,0.8-1.8,1.3-3,1.6v0.2c1.6,0.2,2.8,0.8,3.7,1.7c0.8,0.9,1.3,2,1.3,3.4c0,1.2-0.4,2.3-1.1,3.3s-1.7,1.7-3,2.3
				C85.6,49,84.2,49.3,82.5,49.3z"/>
		</g>
	</g>
</g>
</svg>
