<?xml version="1.0" encoding="UTF-8" standalone="no"?>
<!-- Generator: Adobe Illustrator 22.1.0, SVG Export Plug-In . SVG Version: 6.00 Build 0)  -->

<svg
   version="1.1"
   x="0px"
   y="0px"
   viewBox="0 0 452 522"
   style="enable-background:new 0 0 452 522;"
   xml:space="preserve"
   id="svg18"
   sodipodi:docname="timer-white.svg"
   inkscape:version="1.1.1 (3bf5ae0d25, 2021-09-20)"
   xmlns:inkscape="http://www.inkscape.org/namespaces/inkscape"
   xmlns:sodipodi="http://sodipodi.sourceforge.net/DTD/sodipodi-0.dtd"
   xmlns="http://www.w3.org/2000/svg"
   xmlns:svg="http://www.w3.org/2000/svg"><defs
   id="defs22" /><sodipodi:namedview
   id="namedview20"
   pagecolor="#ffffff"
   bordercolor="#666666"
   borderopacity="1.0"
   inkscape:pageshadow="2"
   inkscape:pageopacity="0.0"
   inkscape:pagecheckerboard="0"
   showgrid="false"
   inkscape:zoom="1.3773946"
   inkscape:cx="226.1516"
   inkscape:cy="261"
   inkscape:window-width="1920"
   inkscape:window-height="1017"
   inkscape:window-x="-8"
   inkscape:window-y="-8"
   inkscape:window-maximized="1"
   inkscape:current-layer="svg18" />
<style
   type="text/css"
   id="style2">
	.st0{opacity:0.15;}
	.st1{fill:#404B96;}
</style>
<g
   id="Layer_1"
   class="st0">
	<path
   d="M233.9,225.9c-4.6,0-8.3,3.7-8.3,8.3v75.9c0,3.4,2,6.4,5.1,7.7c1,0.4,2.1,0.6,3.2,0.6c2.2,0,4.3-0.8,5.9-2.4l35.7-35.7   c3.3-3.3,3.3-8.5,0-11.8s-8.5-3.3-11.8,0L242.3,290v-55.8C242.3,229.6,238.6,225.9,233.9,225.9z"
   id="path4" />
	<path
   d="M386,301.8h-32.2c-4.6,0-8.3,3.7-8.3,8.3s3.7,8.3,8.3,8.3H386c-2,36.8-17.3,72.4-44.3,99.5c-27.6,27.6-63.2,42.3-99.5,44.2   v-32.4c0-4.6-3.7-8.3-8.3-8.3s-8.3,3.7-8.3,8.3V462c-36.1-2-71.7-16.8-99.3-44.4s-42.4-63.2-44.4-99.3h32.2c4.6,0,8.3-3.7,8.3-8.3   s-3.7-8.3-8.3-8.3H81.9c1.9-36.2,16.7-71.9,44.2-99.5s63.2-42.3,99.5-44.2v35.7c0,4.6,3.7,8.3,8.3,8.3s8.3-3.7,8.3-8.3V158   c36.1,2,71.7,16.8,99.3,44.4c3.3,3.3,8.5,3.3,11.8,0s3.3-8.5,0-11.8c-66-66-173.2-66-239.1-0.2C81.8,223,65.4,265.6,65,308.3   c-0.1,0.6-0.2,1.2-0.2,1.9c0,0.6,0.1,1.3,0.2,1.9c0.5,42.6,17,85.1,49.5,117.6c33,33,76.4,49.5,119.7,49.5   c43.2,0,86.5-16.5,119.4-49.4c31.9-31.9,49-74.5,49.4-118c0.1-0.5,0.2-1,0.2-1.6c0-0.5-0.1-1-0.1-1.5c-0.2-19.8-3.8-39.8-11.2-59   c-1.7-4.3-6.5-6.5-10.8-4.8s-6.5,6.5-4.8,10.8C381.9,270.7,385.2,286.2,386,301.8z"
   id="path6" />
	<path
   d="M416,158.8c1.6,1.6,3.8,2.5,5.9,2.5s4.3-0.8,5.9-2.4l18-17.9c1.6-1.6,2.5-3.7,2.5-5.9c0-2.2-0.9-4.3-2.4-5.9l-22.2-22.3   c-3.3-3.3-8.5-3.3-11.8,0s-3.3,8.5,0,11.8L428,135l-6.1,6.1l-37.4-37.5l6.1-6.1l1.5,1.5c3.3,3.3,8.5,3.3,11.8,0s3.3-8.5,0-11.8   l-7.4-7.4c-3.3-3.3-8.5-3.3-11.8,0l-18,17.9c-1.6,1.6-2.5,3.7-2.5,5.9c0,2.2,0.9,4.3,2.4,5.9l9.7,9.8l-20.4,20.3   c-23.6-16.9-50.9-29.1-80.4-35v-43h27.4c4.6,0,8.3-3.7,8.3-8.3v-37c0-4.6-3.7-8.3-8.3-8.3H164.7c-4.6,0-8.3,3.7-8.3,8.3v36.9   c0,4.6,3.7,8.3,8.3,8.3h27.4v14.7c0,4.6,3.7,8.3,8.3,8.3s8.3-3.7,8.3-8.3V61.6H259v40.2c-8.2-1-16.6-1.5-25.1-1.5   c-45.5,0-87.7,14.5-122.1,39.2l-20.3-20.2l9.7-9.8c1.6-1.6,2.4-3.7,2.4-5.9c0-2.2-0.9-4.3-2.5-5.9l-18-17.9   c-3.3-3.2-8.5-3.2-11.8,0l-7.4,7.4c-3.3,3.3-3.2,8.5,0,11.8c3.3,3.3,8.5,3.2,11.8,0l1.5-1.5l6.1,6.1l-37.4,37.5L40,135l16.3-16.4   c3.3-3.3,3.2-8.5,0-11.8c-3.3-3.3-8.6-3.3-11.8,0l-22.2,22.3c-1.6,1.6-2.4,3.7-2.4,5.9c0,2.2,0.9,4.3,2.5,5.9l18,17.9   c1.6,1.6,3.8,2.4,5.9,2.4s4.3-0.8,5.9-2.5l9.8-9.8l18.4,18.3C45.4,204.7,24,254.9,24,310.1C24,425.8,118.3,520,234.2,520   s210.2-94.1,210.2-209.9c0-55.1-21.4-105.3-56.3-142.8l18.4-18.3L416,158.8z M200.5,44.9H173V24.7h121.9v20.2h-27.4   C267.4,44.9,200.5,44.9,200.5,44.9z M73.7,137.3l6.1-6.1l18.7,18.6c-2.2,1.9-4.4,3.8-6.5,5.7L73.7,137.3z M427.4,310.1   c0,106.5-86.8,193.2-193.5,193.2S40.5,416.6,40.5,310.1S127.3,117,234,117S427.4,203.6,427.4,310.1z M375.9,155.5   c-2.1-1.9-4.3-3.9-6.5-5.7l18.8-18.7l6.1,6.1L375.9,155.5z"
   id="path8" />
</g>
<g
   id="Layer_1_copy"
   style="fill:#ffffff;fill-opacity:1">
	<path
   class="st1"
   d="M220.9,217.9c-4.6,0-8.3,3.7-8.3,8.3v75.9c0,3.4,2,6.4,5.1,7.7c1,0.4,2.1,0.6,3.2,0.6c2.2,0,4.3-0.8,5.9-2.4   l35.7-35.7c3.3-3.3,3.3-8.5,0-11.8s-8.5-3.3-11.8,0L229.3,282v-55.8C229.3,221.6,225.6,217.9,220.9,217.9z"
   id="path11"
   style="fill:#ffffff;fill-opacity:1" />
	<path
   class="st1"
   d="M373,293.8h-32.2c-4.6,0-8.3,3.7-8.3,8.3s3.7,8.3,8.3,8.3H373c-2,36.8-17.3,72.4-44.3,99.5   c-27.6,27.6-63.2,42.3-99.5,44.2v-32.4c0-4.6-3.7-8.3-8.3-8.3s-8.3,3.7-8.3,8.3V454c-36.1-2-71.7-16.8-99.3-44.4   s-42.4-63.2-44.4-99.3h32.2c4.6,0,8.3-3.7,8.3-8.3s-3.7-8.3-8.3-8.3H68.9c1.9-36.2,16.7-71.9,44.2-99.5s63.2-42.3,99.5-44.2v35.7   c0,4.6,3.7,8.3,8.3,8.3s8.3-3.7,8.3-8.3V150c36.1,2,71.7,16.8,99.3,44.4c3.3,3.3,8.5,3.3,11.8,0s3.3-8.5,0-11.8   c-66-66-173.2-66-239.1-0.2C68.8,215,52.4,257.6,52,300.3c-0.1,0.6-0.2,1.2-0.2,1.9c0,0.6,0.1,1.3,0.2,1.9   c0.5,42.6,17,85.1,49.5,117.6c33,33,76.4,49.5,119.7,49.5c43.2,0,86.5-16.5,119.4-49.4c31.9-31.9,49-74.5,49.4-118   c0.1-0.5,0.2-1,0.2-1.6c0-0.5-0.1-1-0.1-1.5c-0.2-19.8-3.8-39.8-11.2-59c-1.7-4.3-6.5-6.5-10.8-4.8s-6.5,6.5-4.8,10.8   C368.9,262.7,372.2,278.2,373,293.8z"
   id="path13"
   style="fill:#ffffff;fill-opacity:1" />
	<path
   class="st1"
   d="M403,150.8c1.6,1.6,3.8,2.5,5.9,2.5s4.3-0.8,5.9-2.4l18-17.9c1.6-1.6,2.5-3.7,2.5-5.9c0-2.2-0.9-4.3-2.4-5.9   l-22.2-22.3c-3.3-3.3-8.5-3.3-11.8,0s-3.3,8.5,0,11.8L415,127l-6.1,6.1l-37.4-37.5l6.1-6.1l1.5,1.5c3.3,3.3,8.5,3.3,11.8,0   s3.3-8.5,0-11.8l-7.4-7.4c-3.3-3.3-8.5-3.3-11.8,0l-18,17.9c-1.6,1.6-2.5,3.7-2.5,5.9c0,2.2,0.9,4.3,2.4,5.9l9.7,9.8l-20.4,20.3   c-23.6-16.9-50.9-29.1-80.4-35v-43h27.4c4.6,0,8.3-3.7,8.3-8.3v-37c0-4.6-3.7-8.3-8.3-8.3H151.7c-4.6,0-8.3,3.7-8.3,8.3v36.9   c0,4.6,3.7,8.3,8.3,8.3h27.4v14.7c0,4.6,3.7,8.3,8.3,8.3s8.3-3.7,8.3-8.3V53.6H246v40.2c-8.2-1-16.6-1.5-25.1-1.5   c-45.5,0-87.7,14.5-122.1,39.2l-20.3-20.2l9.7-9.8c1.6-1.6,2.4-3.7,2.4-5.9c0-2.2-0.9-4.3-2.5-5.9l-18-17.9   c-3.3-3.2-8.5-3.2-11.8,0l-7.4,7.4c-3.3,3.3-3.2,8.5,0,11.8c3.3,3.3,8.5,3.2,11.8,0l1.5-1.5l6.1,6.1l-37.4,37.5L27,127l16.3-16.4   c3.3-3.3,3.2-8.5,0-11.8c-3.3-3.3-8.6-3.3-11.8,0L9.3,121.1c-1.6,1.6-2.4,3.7-2.4,5.9c0,2.2,0.9,4.3,2.5,5.9l18,17.9   c1.6,1.6,3.8,2.4,5.9,2.4s4.3-0.8,5.9-2.5l9.8-9.8l18.4,18.3C32.4,196.7,11,246.9,11,302.1C11,417.8,105.3,512,221.2,512   s210.2-94.1,210.2-209.9c0-55.1-21.4-105.3-56.3-142.8l18.4-18.3L403,150.8z M187.5,36.9H160V16.7h121.9v20.2h-27.4   C254.4,36.9,187.5,36.9,187.5,36.9z M60.7,129.3l6.1-6.1l18.7,18.6c-2.2,1.9-4.4,3.8-6.5,5.7L60.7,129.3z M414.4,302.1   c0,106.5-86.8,193.2-193.5,193.2S27.5,408.6,27.5,302.1S114.3,109,221,109S414.4,195.6,414.4,302.1z M362.9,147.5   c-2.1-1.9-4.3-3.9-6.5-5.7l18.8-18.7l6.1,6.1L362.9,147.5z"
   id="path15"
   style="fill:#ffffff;fill-opacity:1" />
</g>
</svg>
